<svg width="101" height="100" viewBox="0 0 101 100" fill="none" xmlns="http://www.w3.org/2000/svg">
<g clip-path="url(#clip0_12074_29327)">
<path d="M28.8662 41.7726C28.8662 43.0268 28.9663 44.0301 29.2163 44.8829C29.4663 45.4849 29.8164 46.2876 30.2665 47.1906C30.4665 47.3913 30.5165 47.6923 30.5165 47.9431C30.5165 48.2943 30.3165 48.5953 29.8664 48.9465L27.7661 50.3512C27.466 50.5518 27.166 50.6522 26.9159 50.6522C26.5659 50.6522 26.2658 50.4515 25.9158 50.1505C25.4657 49.6488 25.0657 49.1472 24.7156 48.5953C24.4156 48.0435 24.0655 47.3913 23.7154 46.6388C21.115 49.699 17.8645 51.2542 13.9139 51.2542C11.1135 51.2542 8.91314 50.4515 7.26288 48.8462C5.66263 47.2408 4.8125 45.0836 4.8125 42.3746C4.8125 39.6154 5.81266 37.3579 7.81297 35.5518C9.86329 33.8462 12.5637 32.9431 15.9642 32.9431C17.1144 32.9431 18.1646 33.0435 19.5148 33.2441C20.665 33.3947 22.0152 33.6455 23.3154 33.9465V31.5385C23.3154 28.9799 22.8153 27.3244 21.7651 26.1706C20.665 25.1171 18.9147 24.6656 16.3643 24.6656C15.1641 24.6656 13.9639 24.8161 12.7637 25.0669C11.5135 25.3679 10.3134 25.7191 9.16318 26.2207C8.61309 26.4214 8.16302 26.5719 8.013 26.6221C7.76296 26.7224 7.61294 26.7224 7.46291 26.7224C7.01284 26.7224 6.7628 26.4214 6.7628 25.7191V24.0635C6.7628 23.5619 6.81281 23.1605 7.01284 22.9097C7.16287 22.6589 7.46291 22.4582 7.91298 22.3077C9.11317 21.6054 10.4634 21.1037 12.1136 20.7023C13.8101 20.2512 15.5595 20.0318 17.3144 20.0502C21.2651 20.0502 24.1655 20.9532 26.0158 22.7592C27.8661 24.5652 28.7662 27.3244 28.7662 30.9866V41.7726H28.8662ZM15.3641 46.8896C16.4643 46.8896 17.5645 46.689 18.7647 46.2876C19.9649 45.8863 21.015 45.1338 21.9152 44.1304C22.4653 43.4783 22.8653 42.7759 23.1654 41.9732C23.1654 41.1706 23.4154 40.2174 23.4154 39.0635V37.709C22.4152 37.3579 21.4151 37.3579 20.3149 37.107C19.285 36.9934 18.2504 36.9264 17.2144 36.9064C14.9641 36.9064 13.3638 37.3579 12.2637 38.2609C11.1635 39.1639 10.6634 40.4181 10.6634 42.0736C10.6634 43.6789 11.0135 44.8829 11.8636 45.6354C12.6637 46.4883 13.8139 46.8896 15.3641 46.8896ZM42.0683 50.4515C41.5838 50.4701 41.1024 50.3667 40.6681 50.1505C40.5181 49.8997 40.268 49.4482 40.068 48.8462L32.2668 23.0602C32.0667 22.3077 31.9667 21.9565 31.9667 21.7057C31.9667 21.1538 32.2168 20.8528 32.7669 20.8528H36.0174C36.6675 20.8528 37.1175 20.9532 37.3176 21.204C37.6176 21.4047 37.8176 21.8562 38.0177 22.5084L43.5685 44.5819L48.7693 22.5084C48.9194 21.8562 49.1194 21.4047 49.4194 21.204C49.6695 21.0033 50.1196 20.8528 50.6696 20.8528H53.4201C54.0202 20.8528 54.4702 20.9532 54.7203 21.204C54.9703 21.4047 55.2203 21.8562 55.3704 22.5084L60.6712 44.8829L66.3721 22.5084C66.5721 21.8562 66.8222 21.4047 67.0222 21.204C67.3222 21.0033 67.7223 20.8528 68.3224 20.8528H71.4229C71.973 20.8528 72.273 21.1538 72.273 21.7057C72.273 21.8562 72.223 22.0569 72.173 22.3077C72.173 22.3077 72.073 22.709 71.973 23.0602L63.9217 48.8462C63.7217 49.5485 63.5216 49.8997 63.1716 50.1505C62.9716 50.3512 62.5215 50.5017 61.9714 50.5017H59.121C58.4709 50.5017 58.1708 50.4013 57.7707 50.1505C57.4345 49.7929 57.2238 49.3349 57.1707 48.8462L52.0199 27.3244L46.869 48.796C46.719 49.4482 46.519 49.8997 46.269 50.1505C45.857 50.3788 45.3883 50.4833 44.9187 50.4515H42.0683ZM84.825 51.3545C83.1747 51.3545 81.3244 51.1538 79.6741 50.7525C78.0239 50.3512 76.7237 49.8997 75.8736 49.4482C75.4386 49.2396 75.0737 48.9083 74.8234 48.495C74.6861 48.2142 74.6175 47.9046 74.6234 47.592V45.8863C74.6234 45.1839 74.8734 44.8829 75.3735 44.8829H75.9736C76.1736 44.8829 76.4737 45.1338 76.8237 45.2843C77.9239 45.786 79.1741 46.1873 80.4743 46.4381C81.8245 46.689 83.1747 46.8395 84.4249 46.8395C86.5252 46.8395 88.1755 46.4883 89.2757 45.7358C90.4258 44.8829 91.0259 43.9298 91.0259 42.5752C91.0259 41.6221 90.6759 40.8696 90.1258 40.2174C89.5257 39.6154 88.3755 39.0134 86.7753 38.5117L81.9245 37.0067C79.5241 36.204 77.7239 35.1003 76.6237 33.5953C75.5501 32.2022 74.9694 30.49 74.9734 28.7291C74.9734 27.3244 75.2735 26.1204 75.8736 25.0669C76.4737 23.9632 77.2738 23.0602 78.1739 22.3077C79.2741 21.5552 80.3743 21.0033 81.7245 20.602C83.0247 20.2007 84.4249 20 85.9251 20C86.6252 20 87.3754 20.0502 88.1755 20.1505C88.8756 20.2508 89.5757 20.4013 90.2758 20.5017C90.9759 20.7023 91.576 20.8528 92.1761 21.0535C92.7762 21.2542 93.1763 21.4548 93.5763 21.6555C94.0264 21.9064 94.3764 22.1572 94.5765 22.4582C94.7765 22.7592 94.8765 23.1104 94.8765 23.5619V25.1672C94.8765 25.8696 94.6265 26.2207 94.1264 26.2207C93.8764 26.2207 93.4263 26.0702 92.8262 25.8194C90.9759 24.9666 88.8256 24.5151 86.4752 24.5151C84.5749 24.5151 83.1747 24.8161 82.0245 25.4682C81.0244 26.0702 80.4743 27.0736 80.4743 28.4281C80.4743 29.3813 80.8243 30.1839 81.4744 30.786C82.1245 31.4381 83.3747 32.0401 85.125 32.6421L89.8757 34.1472C92.2761 34.8495 93.9764 35.9532 95.0266 37.3579C96.0267 38.7124 96.5268 40.2676 96.5268 42.0234C96.5268 43.4281 96.2267 44.7324 95.6767 45.8863C95.0766 46.99 94.2764 47.9933 93.1763 48.796C92.2261 49.6488 90.9759 50.2508 89.5757 50.7023C88.1755 51.1538 86.4752 51.3545 84.825 51.3545Z" fill="white"/>
<path d="M91.079 67.1714C80.1273 75.5329 64.2249 79.9993 50.6728 79.9993C31.4198 79.9993 14.1671 72.6246 1.11504 60.4199C0.0648737 59.4331 1.01502 58.1347 2.26522 58.9137C16.3674 67.3791 33.7201 72.5207 51.7229 72.5207C63.8748 72.5207 77.2269 69.924 89.4788 64.4189C91.3291 63.6398 92.8793 65.7692 91.079 67.1714ZM95.6798 61.8221C94.2295 59.9005 86.3783 60.8873 82.8278 61.3028C81.7776 61.4586 81.6276 60.4718 82.5777 59.7447C88.8287 55.2264 99.1303 56.6286 100.28 58.0309C101.481 59.5889 99.9804 70.2875 94.1295 75.3771C93.1794 76.1562 92.3292 75.7407 92.7293 74.8059C94.0795 71.2743 97.03 63.5879 95.6798 61.8221Z" fill="#FF9900"/>
</g>
<defs>
<clipPath id="clip0_12074_29327">
<rect width="100" height="100" fill="white" transform="translate(0.664062)"/>
</clipPath>
</defs>
</svg>
