<svg width="101" height="100" viewBox="0 0 101 100" fill="none" xmlns="http://www.w3.org/2000/svg">
<path d="M39.5034 16.667H60.6641L38.6977 81.0617C38.4722 81.7236 38.0423 82.2988 37.4689 82.7063C36.8954 83.1137 36.2071 83.3328 35.5011 83.3327H19.0334C18.4986 83.3326 17.9714 83.2065 17.4956 82.965C17.0197 82.7235 16.6087 82.3735 16.2966 81.9438C15.9845 81.514 15.7804 81.0169 15.7012 80.4935C15.622 79.9702 15.6699 79.4357 15.841 78.9344L36.3068 18.9375C36.5325 18.2756 36.9623 17.7004 37.5357 17.2929C38.1092 16.8854 38.7974 16.6662 39.5034 16.666V16.667Z" fill="url(#paint0_linear_12074_29330)"/>
<path d="M69.0812 60H35.554C35.2423 59.9994 34.9376 60.0913 34.6796 60.2637C34.4217 60.4361 34.2226 60.681 34.1082 60.9665C33.9938 61.252 33.9694 61.5647 34.0383 61.864C34.1072 62.1633 34.2662 62.4352 34.4944 62.6443L56.038 82.4372C56.6653 83.0132 57.4912 83.3334 58.349 83.3333H77.3333L69.0812 60Z" fill="#0078D4"/>
<path d="M39.0819 16.666C38.3807 16.6634 37.697 16.8866 37.1307 17.303C36.5643 17.7194 36.1451 18.3073 35.9341 18.9808L15.8582 78.8798C15.6789 79.383 15.6227 79.9222 15.6942 80.4519C15.7657 80.9817 15.9628 81.4863 16.2688 81.923C16.5749 82.3598 16.9809 82.716 17.4526 82.9613C17.9242 83.2067 18.4476 83.3341 18.9784 83.3327H35.5764C36.1945 83.2215 36.7723 82.947 37.2506 82.5374C37.729 82.1277 38.0908 81.5975 38.2991 81.001L42.3024 69.1192L56.6033 82.551C57.2024 83.0502 57.9541 83.3263 58.7317 83.3327H77.3307L69.1733 59.8582L45.3941 59.8639L59.9479 16.666H39.0819Z" fill="url(#paint1_linear_12074_29330)"/>
<path d="M65.3509 18.9334C65.1291 18.2724 64.7066 17.6981 64.143 17.2913C63.5793 16.8845 62.9029 16.6658 62.2091 16.666H39C39.6937 16.6661 40.3699 16.8849 40.9335 17.2916C41.497 17.6984 41.9194 18.2726 42.1413 18.9334L62.2833 78.9328C62.4519 79.4343 62.4993 79.9689 62.4215 80.4925C62.3437 81.016 62.143 81.5134 61.836 81.9434C61.529 82.3734 61.1245 82.7237 60.656 82.9653C60.1875 83.2069 59.6685 83.3328 59.142 83.3327H82.3521C82.8784 83.3323 83.3971 83.206 83.8652 82.9643C84.3334 82.7225 84.7377 82.3722 85.0445 81.9423C85.3514 81.5124 85.5521 81.0153 85.6301 80.492C85.708 79.9687 85.661 79.4342 85.4929 78.9328L65.3509 18.9334Z" fill="url(#paint2_linear_12074_29330)"/>
<defs>
<linearGradient id="paint0_linear_12074_29330" x1="47.2161" y1="21.6072" x2="25.6567" y2="85.9798" gradientUnits="userSpaceOnUse">
<stop stop-color="#114A8B"/>
<stop offset="1" stop-color="#0669BC"/>
</linearGradient>
<linearGradient id="paint1_linear_12074_29330" x1="53.4043" y1="51.5411" x2="48.403" y2="53.2202" gradientUnits="userSpaceOnUse">
<stop stop-opacity="0.3"/>
<stop offset="0.071" stop-opacity="0.2"/>
<stop offset="0.321" stop-opacity="0.1"/>
<stop offset="0.623" stop-opacity="0.05"/>
<stop offset="1" stop-opacity="0"/>
</linearGradient>
<linearGradient id="paint2_linear_12074_29330" x1="50.3466" y1="19.7325" x2="74.3096" y2="83.2348" gradientUnits="userSpaceOnUse">
<stop stop-color="#3CCBF4"/>
<stop offset="1" stop-color="#2892DF"/>
</linearGradient>
</defs>
</svg>
