<svg width="101" height="100" viewBox="0 0 101 100" fill="none" xmlns="http://www.w3.org/2000/svg">
<path d="M64.1023 35.0539L71.3039 27.8523L71.7838 24.8199C58.6605 12.8869 37.7994 14.24 25.9689 27.6432C22.6832 31.3659 20.2453 36.007 18.9453 40.7995L21.5246 40.4361L35.9275 38.0607L37.0395 36.9238C43.4463 29.8876 54.279 28.9409 61.6764 34.9277L64.1023 35.0539Z" fill="#EA4335"/>
<path d="M81.5533 40.5879C79.8981 34.4922 76.4994 29.0122 71.7743 24.8203L61.6669 34.9278C63.7733 36.649 65.4615 38.826 66.604 41.2948C67.7464 43.7635 68.3133 46.4594 68.262 49.1792V50.9734C73.2296 50.9734 77.2578 55.0009 77.2578 59.9688C77.2578 64.9371 73.23 68.8637 68.262 68.8637H50.2455L48.4766 70.7841V81.5737L50.2455 83.2666H68.2617C81.184 83.3672 91.7416 73.0744 91.8423 60.152C91.8723 56.2957 90.9487 52.4917 89.1536 49.0784C87.3585 45.6652 84.7477 42.7485 81.5533 40.5879Z" fill="#4285F4"/>
<path d="M32.2659 83.2644H50.2571V68.8611H32.2659C30.9923 68.861 29.7338 68.5852 28.5769 68.0527L26.0244 68.8359L18.7723 76.0375L18.1406 78.4887C22.2076 81.5595 27.1698 83.2864 32.2659 83.2644Z" fill="#34A853"/>
<path d="M32.259 36.5431C19.3367 36.6205 8.9234 47.159 9.00042 60.0816C9.02167 63.6426 9.85544 67.1518 11.4382 70.3418C13.021 73.5318 15.311 76.3184 18.1338 78.4894L28.57 68.0538C24.0425 66.0078 22.0302 60.6797 24.0758 56.1522C26.1211 51.6247 31.4499 49.6124 35.9771 51.6577C37.9722 52.5591 39.5701 54.157 40.4713 56.1522L50.9075 45.7159C48.7171 42.8523 45.894 40.5342 42.6588 38.9429C39.4237 37.3516 35.8643 36.5303 32.259 36.5431Z" fill="#FBBC05"/>
</svg>
