<svg width="937" height="761" viewBox="0 0 937 761" fill="none" xmlns="http://www.w3.org/2000/svg"><g clip-path="url(#prefix__clip0_1534_15425)"><g opacity=".6"><path d="M1089.13 708.222L555.092 389.34l450.428-260.053 105.79-61.639 85.17 50.067 457.72 264.264-565.07 326.243z" fill="url(#prefix__paint0_linear_1534_15425)"/><path d="M1089.13 708.222L555.092 389.34l450.428-260.053 105.79-61.639 85.17 50.067 457.72 264.264-565.07 326.243z" fill="url(#prefix__paint1_diamond_1534_15425)" fill-opacity=".5"/></g><g filter="url(#prefix__filter0_f_1534_15425)"><ellipse cx="795.819" cy="426.383" rx="59.675" ry="18.061" transform="rotate(-148.79 795.819 426.383)" fill="url(#prefix__paint2_radial_1534_15425)" fill-opacity=".5"/></g><g opacity=".7"><ellipse cx="752.365" cy="394.446" rx="19.664" ry="19.49" fill="url(#prefix__paint3_radial_1534_15425)"/><ellipse cx="752.365" cy="394.446" rx="19.664" ry="19.49" fill="url(#prefix__paint4_radial_1534_15425)" fill-opacity=".5"/><ellipse cx="752.365" cy="394.446" rx="19.664" ry="19.49" fill="url(#prefix__paint5_radial_1534_15425)"/></g><path d="M533.736 921.911L-.297 603.028l450.425-260.053 105.791-61.639 85.169 50.067 457.722 264.264-565.074 326.244z" fill="url(#prefix__paint6_linear_1534_15425)"/><path d="M533.736 921.911L-.297 603.028l450.425-260.053 105.791-61.639 85.169 50.067 457.722 264.264-565.074 326.244z" fill="url(#prefix__paint7_diamond_1534_15425)" fill-opacity=".6"/><path d="M-5.456 605.349L-537.154 287.9-90.368 29.949 14.565-31.193 99.36 18.65l455.688 263.092L-5.456 605.349z" fill="url(#prefix__paint8_linear_1534_15425)" fill-opacity=".15"/><g filter="url(#prefix__filter1_f_1534_15425)"><ellipse cx="690.751" cy="674.435" rx="141.626" ry="48.666" transform="rotate(-121.21 690.751 674.435)" fill="url(#prefix__paint9_radial_1534_15425)" fill-opacity=".5"/></g><ellipse cx="632.294" cy="542.881" rx="46.462" ry="46.114" fill="url(#prefix__paint10_radial_1534_15425)"/><ellipse cx="632.294" cy="542.881" rx="46.462" ry="46.114" fill="url(#prefix__paint11_radial_1534_15425)" fill-opacity=".5"/><ellipse cx="632.294" cy="542.881" rx="46.462" ry="46.114" fill="url(#prefix__paint12_radial_1534_15425)"/><path opacity=".4" transform="matrix(-.86603 -.5 .86603 -.5 555.867 388.581)" fill="url(#prefix__paint13_linear_1534_15425)" d="M0 0h107.228v107.228H0z"/><g opacity=".9" fill-rule="evenodd" clip-rule="evenodd"><path d="M463.005 335.136l92.812-96.957v150.447l-92.812-53.49z" fill="url(#prefix__paint14_linear_1534_15425)"/><path d="M463.005 335.136l92.812-96.957v150.447l-92.812-53.49z" fill="url(#prefix__paint15_linear_1534_15425)" fill-opacity=".1"/></g><g opacity=".9" fill-rule="evenodd" clip-rule="evenodd"><path d="M648.653 335.136l-92.813-96.957v150.447l92.813-53.49z" fill="url(#prefix__paint16_linear_1534_15425)"/><path d="M648.653 335.136l-92.813-96.957v150.447l92.813-53.49z" fill="url(#prefix__paint17_linear_1534_15425)" fill-opacity=".1"/></g><path d="M193.008 232.29l180.676 104.313-79.129 48.093" stroke="url(#prefix__paint18_linear_1534_15425)" stroke-width=".696"/><path d="M294.085 387.987c1.888-1.09 1.888-2.858 0-3.948-1.889-1.09-4.95-1.09-6.839 0-1.888 1.09-1.888 2.858 0 3.948 1.889 1.09 4.95 1.09 6.839 0z" stroke="#fff" stroke-opacity=".8" stroke-width=".696"/><g opacity=".7" stroke="#fff" stroke-width=".696"><path d="M807.153 306.639L987.83 202.326"/><circle r="3.948" transform="scale(1.22477 .70706) rotate(-45 854.534 -573.755)"/></g><path d="M581.502 470.483l99.306-58.156 121.859 70.191" stroke="url(#prefix__paint19_linear_1534_15425)" stroke-width=".696" stroke-dasharray="2.78 4.18"/><path d="M575.765 467.286l11.474 6.625" stroke="#fff" stroke-width=".696"/><g filter="url(#prefix__filter2_d_1534_15425)" stroke-width=".696"><path d="M323.329 617.693l191.428-109.228" stroke="url(#prefix__paint20_linear_1534_15425)" stroke-dasharray="2.78 4.18"/><path d="M520.49 511.662l-11.474-6.624" stroke="#fff"/></g><g filter="url(#prefix__filter3_f_1534_15425)"><ellipse cx="365.278" cy="456.592" rx="78.95" ry="22.354" transform="rotate(-31.24 365.278 456.592)" fill="url(#prefix__paint21_radial_1534_15425)" fill-opacity=".5"/></g><circle cx="420.779" cy="405.495" r="21.23" transform="rotate(77.507 420.779 405.495)" fill="url(#prefix__paint22_radial_1534_15425)"/><circle cx="420.779" cy="405.495" r="21.23" transform="rotate(77.507 420.779 405.495)" fill="url(#prefix__paint23_radial_1534_15425)" fill-opacity=".5"/><circle r="8.41" transform="matrix(.86603 -.5 0 1 548.872 484.498)" stroke="#fff" stroke-width=".696"/><path fill="url(#prefix__paint24_linear_1534_15425)" d="M803 0h134v764H803z"/></g><defs><radialGradient id="prefix__paint1_diamond_1534_15425" cx="0" cy="0" r="1" gradientUnits="userSpaceOnUse" gradientTransform="rotate(98.349 440.493 439.639) scale(1064.24 2293.69)"><stop stop-color="#FFEC6A"/><stop offset=".339" stop-color="#FF4E54" stop-opacity=".49"/><stop offset="1" stop-color="#000637" stop-opacity="0"/></radialGradient><radialGradient id="prefix__paint2_radial_1534_15425" cx="0" cy="0" r="1" gradientUnits="userSpaceOnUse" gradientTransform="rotate(-178.359 432.118 207.214) scale(101.704 418.034)"><stop offset=".471" stop-color="#131313"/><stop offset="1" stop-opacity="0"/></radialGradient><radialGradient id="prefix__paint3_radial_1534_15425" cx="0" cy="0" r="1" gradientUnits="userSpaceOnUse" gradientTransform="rotate(65.62 82.564 764.161) scale(42.1197 42.3682)"><stop offset=".135" stop-color="#343536"/><stop offset=".661" stop-color="#1D1E1F"/><stop offset=".957" stop-color="#111"/></radialGradient><radialGradient id="prefix__paint4_radial_1534_15425" cx="0" cy="0" r="1" gradientUnits="userSpaceOnUse" gradientTransform="rotate(48.235 -53.387 1020.632) scale(30.264 40.0259)"><stop stop-color="#FFA463"/><stop offset=".932" stop-opacity="0"/></radialGradient><radialGradient id="prefix__paint5_radial_1534_15425" cx="0" cy="0" r="1" gradientUnits="userSpaceOnUse" gradientTransform="matrix(23.23879 24.8455 -25.03728 23.41817 742.831 385.668)"><stop stop-color="#C4C4C4" stop-opacity="0"/><stop offset=".391" stop-color="#171717" stop-opacity="0"/><stop offset=".734" stop-color="#1A1A1A"/><stop offset=".844" stop-color="#171717"/><stop offset=".969" stop-color="#171313"/></radialGradient><radialGradient id="prefix__paint7_diamond_1534_15425" cx="0" cy="0" r="1" gradientUnits="userSpaceOnUse" gradientTransform="matrix(-224.28338 656.31139 -1414.50596 -483.38362 566.58 281.262)"><stop stop-color="#FFEC6A"/><stop offset=".402" stop-color="#FF4E54" stop-opacity=".49"/><stop offset=".884" stop-color="#000637" stop-opacity="0"/></radialGradient><radialGradient id="prefix__paint9_radial_1534_15425" cx="0" cy="0" r="1" gradientUnits="userSpaceOnUse" gradientTransform="rotate(-178.137 424.801 330.85) scale(241.403 1126.27)"><stop offset=".471" stop-color="#131313"/><stop offset="1" stop-opacity="0"/></radialGradient><radialGradient id="prefix__paint10_radial_1534_15425" cx="0" cy="0" r="1" gradientUnits="userSpaceOnUse" gradientTransform="rotate(65.649 -75.565 722.382) scale(99.635 100.132)"><stop offset=".135" stop-color="#343536"/><stop offset=".661" stop-color="#1D1E1F"/><stop offset=".957" stop-color="#111"/></radialGradient><radialGradient id="prefix__paint11_radial_1534_15425" cx="0" cy="0" r="1" gradientUnits="userSpaceOnUse" gradientTransform="matrix(23.96994 59.5439 -78.69518 31.67946 616.394 500.326)"><stop stop-color="#FF9B63"/><stop offset=".932" stop-opacity="0"/></radialGradient><radialGradient id="prefix__paint12_radial_1534_15425" cx="0" cy="0" r="1" gradientUnits="userSpaceOnUse" gradientTransform="rotate(89.867 54.086 578.33) scale(70.8511 71.3859)"><stop stop-color="#C4C4C4" stop-opacity="0"/><stop offset=".391" stop-color="#171717" stop-opacity="0"/><stop offset=".734" stop-color="#1A1A1A"/><stop offset=".844" stop-color="#171717"/><stop offset=".969" stop-color="#171313"/></radialGradient><radialGradient id="prefix__paint21_radial_1534_15425" cx="0" cy="0" r="1" gradientUnits="userSpaceOnUse" gradientTransform="matrix(-144.7329 43.67814 -171.63708 -568.74055 447.711 445.314)"><stop offset=".396" stop-color="#131313"/><stop offset=".654" stop-opacity=".37"/><stop offset="1" stop-opacity="0"/></radialGradient><radialGradient id="prefix__paint22_radial_1534_15425" cx="0" cy="0" r="1" gradientUnits="userSpaceOnUse" gradientTransform="rotate(65.811 -89.58 509.936) scale(45.8115)"><stop offset=".135" stop-color="#FFB49C"/><stop offset=".957" stop-color="#1E1A03"/></radialGradient><radialGradient id="prefix__paint23_radial_1534_15425" cx="0" cy="0" r="1" gradientUnits="userSpaceOnUse" gradientTransform="matrix(10.95252 27.41268 -36.03309 14.39674 413.513 385.904)"><stop stop-color="#FFCC69"/><stop offset=".932" stop-color="#871010" stop-opacity="0"/></radialGradient><linearGradient id="prefix__paint0_linear_1534_15425" x1="1196.8" y1="117.591" x2="1218.82" y2="481.03" gradientUnits="userSpaceOnUse"><stop stop-color="#1C1C1C"/><stop offset="1" stop-opacity="0"/></linearGradient><linearGradient id="prefix__paint6_linear_1534_15425" x1="641.41" y1="331.279" x2="663.434" y2="694.719" gradientUnits="userSpaceOnUse"><stop stop-color="#1C1C1C"/><stop offset="1" stop-opacity="0"/></linearGradient><linearGradient id="prefix__paint8_linear_1534_15425" x1="446.575" y1="401.938" x2="45.657" y2="368.406" gradientUnits="userSpaceOnUse"><stop stop-color="#FFA25F"/><stop offset="1" stop-color="#fff" stop-opacity="0"/></linearGradient><linearGradient id="prefix__paint13_linear_1534_15425" x1="0" y1="107.228" x2="116.762" y2="11.647" gradientUnits="userSpaceOnUse"><stop stop-color="#FFF4D4"/><stop offset="1" stop-color="#EC585D"/></linearGradient><linearGradient id="prefix__paint14_linear_1534_15425" x1="463.005" y1="388.626" x2="595.372" y2="319.192" gradientUnits="userSpaceOnUse"><stop stop-color="#FFF6B7"/><stop offset="1" stop-color="#EC585D"/></linearGradient><linearGradient id="prefix__paint15_linear_1534_15425" x1="550.708" y1="223.91" x2="509.293" y2="374.432" gradientUnits="userSpaceOnUse"><stop/><stop offset="1" stop-opacity="0"/></linearGradient><linearGradient id="prefix__paint16_linear_1534_15425" x1="648.653" y1="388.626" x2="516.286" y2="319.192" gradientUnits="userSpaceOnUse"><stop stop-color="#EC585D"/><stop offset="1" stop-color="#FFF6B7"/></linearGradient><linearGradient id="prefix__paint17_linear_1534_15425" x1="655.464" y1="329.885" x2="555.928" y2="263.237" gradientUnits="userSpaceOnUse"><stop/><stop offset="1" stop-opacity="0"/></linearGradient><linearGradient id="prefix__paint18_linear_1534_15425" x1="298.977" y1="387.412" x2="263.042" y2="256.94" gradientUnits="userSpaceOnUse"><stop stop-color="#fff" stop-opacity=".67"/><stop offset="1" stop-color="#fff" stop-opacity="0"/></linearGradient><linearGradient id="prefix__paint19_linear_1534_15425" x1="589.513" y1="465.271" x2="795.448" y2="437.054" gradientUnits="userSpaceOnUse"><stop stop-color="#fff"/><stop offset="1" stop-color="#fff" stop-opacity="0"/></linearGradient><linearGradient id="prefix__paint20_linear_1534_15425" x1="504.753" y1="514.828" x2="348.933" y2="600.587" gradientUnits="userSpaceOnUse"><stop stop-color="#fff"/><stop offset="1" stop-color="#fff" stop-opacity="0"/></linearGradient><linearGradient id="prefix__paint24_linear_1534_15425" x1="937" y1="347" x2="803" y2="347" gradientUnits="userSpaceOnUse"><stop/><stop offset="1" stop-opacity="0"/></linearGradient><filter id="prefix__filter0_f_1534_15425" x="737.767" y="385.656" width="116.104" height="81.455" filterUnits="userSpaceOnUse" color-interpolation-filters="sRGB"><feFlood flood-opacity="0" result="BackgroundImageFix"/><feBlend in="SourceGraphic" in2="BackgroundImageFix" result="shape"/><feGaussianBlur stdDeviation="3.077" result="effect1_foregroundBlur_1534_15425"/></filter><filter id="prefix__filter1_f_1534_15425" x="600.213" y="544.531" width="181.077" height="259.809" filterUnits="userSpaceOnUse" color-interpolation-filters="sRGB"><feFlood flood-opacity="0" result="BackgroundImageFix"/><feBlend in="SourceGraphic" in2="BackgroundImageFix" result="shape"/><feGaussianBlur stdDeviation="3.077" result="effect1_foregroundBlur_1534_15425"/></filter><filter id="prefix__filter2_d_1534_15425" x="321.803" y="504.864" width="200.38" height="115.848" filterUnits="userSpaceOnUse" color-interpolation-filters="sRGB"><feFlood flood-opacity="0" result="BackgroundImageFix"/><feColorMatrix in="SourceAlpha" values="0 0 0 0 0 0 0 0 0 0 0 0 0 0 0 0 0 0 127 0" result="hardAlpha"/><feOffset dy="1.392"/><feGaussianBlur stdDeviation=".696"/><feComposite in2="hardAlpha" operator="out"/><feColorMatrix values="0 0 0 0 0 0 0 0 0 0 0 0 0 0 0 0 0 0 0.25 0"/><feBlend in2="BackgroundImageFix" result="effect1_dropShadow_1534_15425"/><feBlend in="SourceGraphic" in2="effect1_dropShadow_1534_15425" result="shape"/></filter><filter id="prefix__filter3_f_1534_15425" x="291.555" y="406.175" width="147.446" height="100.834" filterUnits="userSpaceOnUse" color-interpolation-filters="sRGB"><feFlood flood-opacity="0" result="BackgroundImageFix"/><feBlend in="SourceGraphic" in2="BackgroundImageFix" result="shape"/><feGaussianBlur stdDeviation="2.61" result="effect1_foregroundBlur_1534_15425"/></filter><clipPath id="prefix__clip0_1534_15425"><path fill="#fff" d="M0 0h937v761H0z"/></clipPath></defs></svg>