<?xml version="1.0" encoding="UTF-8" standalone="no"?>
<!-- Created with Inkscape (http://www.inkscape.org/) -->

<svg
   width="350"
   height="275.28836"
   viewBox="0 0 92.604167 72.836712"
   version="1.1"
   id="svg1"
   xml:space="preserve"
   xmlns="http://www.w3.org/2000/svg"
   xmlns:svg="http://www.w3.org/2000/svg"
   xmlns:rdf="http://www.w3.org/1999/02/22-rdf-syntax-ns#"
   xmlns:cc="http://creativecommons.org/ns#"
   xmlns:dc="http://purl.org/dc/elements/1.1/"><title
     id="title64">Janata Bank PLC. - জনতা ব্যাংক পিএলসি</title><defs
     id="defs1" /><g
     id="layer1"
     transform="translate(-58.456807,-73.774505)"><path
       id="path57"
       style="color:#000000;display:inline;fill:#00b8df;fill-opacity:1;fill-rule:evenodd;stroke-width:0.500348;-inkscape-stroke:none"
       d="m 104.75992,73.983331 c -13.613756,0 -27.259806,2.654588 -40.88438,7.99012 a 1.6549618,1.6549618 0 0 0 -0.980291,1.058838 c -2.743443,8.990152 -4.173857,18.049351 -4.173858,27.161861 0,9.11251 1.430415,18.1717 4.173858,27.16186 a 1.6549618,1.6549618 0 0 0 0.980291,1.05626 c 13.624574,5.33552 27.270624,7.99012 40.88438,7.99012 13.61376,0 27.25982,-2.6546 40.88439,-7.99012 a 1.6549618,1.6549618 0 0 0 0.97822,-1.05626 c 2.74345,-8.99016 4.17387,-18.04935 4.17386,-27.16186 0,-9.11251 -1.43041,-18.171709 -4.17386,-27.161861 a 1.6549618,1.6549618 0 0 0 -0.97822,-1.058838 c -13.62457,-5.335531 -27.27063,-7.99012 -40.88439,-7.99012 z m 0,3.310872 c 12.91933,0 25.87349,2.497785 38.87833,7.487831 2.50152,8.443751 3.84779,16.908776 3.84779,25.412116 0,8.50331 -1.34629,16.9658 -3.84779,25.40954 -13.00484,4.99003 -25.959,7.4904 -38.87833,7.4904 -12.919368,0 -25.875504,-2.50033 -38.880391,-7.4904 -2.501482,-8.44374 -3.847783,-16.90623 -3.847783,-25.40954 1e-6,-8.50334 1.34628,-16.968364 3.847783,-25.412116 13.004887,-4.990082 25.961023,-7.487831 38.880391,-7.487831 z M 90.210071,89.934116 V 110.5409 c 0,1.69465 -1.347492,3.04163 -3.042158,3.04163 -1.69466,0 -3.043191,-1.34698 -3.043191,-3.04163 0,-1.04854 0.518029,-1.9628 1.313083,-2.50886 l -1.791084,-1.64123 c -1.178534,1.00259 -1.932161,2.49251 -1.932161,4.15009 0,2.99706 2.456285,5.4518 5.453353,5.4518 2.997073,0 5.451803,-2.45474 5.451803,-5.4518 V 89.934116 Z m 4.819807,0 V 110.5409 c 0,4.35652 -3.505436,7.86144 -7.861965,7.86144 -4.356528,0 -7.862997,-3.50492 -7.862998,-7.86144 0,-2.30062 0.98417,-4.35813 2.548654,-5.79339 l -1.770931,-1.62262 c -1.958667,1.8724 -3.187367,4.50274 -3.187367,7.41601 0,5.65894 4.613705,10.2716 10.272642,10.2716 5.658939,0 10.271609,-4.61266 10.271609,-10.2716 V 89.934116 Z m 4.819805,0 V 110.5409 c 0,7.0184 -5.663369,12.68125 -12.68177,12.68125 -7.018396,0 -12.682804,-5.66286 -12.682804,-12.68125 0,-3.55511 1.45527,-6.76136 3.801792,-9.06137 L 76.51752,99.858463 c -2.742369,2.734277 -4.442056,6.513967 -4.442056,10.682437 0,8.32081 6.771643,15.09141 15.092449,15.09141 8.320807,0 15.091417,-6.77059 15.091417,-15.09141 V 89.934116 Z m 4.819807,0 V 110.5409 c 0,9.68027 -7.82131,17.50105 -17.501577,17.50105 -9.680268,0 -17.50261,-7.82078 -17.50261,-17.50105 0,-4.81016 1.932697,-9.16078 5.063716,-12.321595 l -1.765247,-1.617454 c -3.52754,3.594139 -5.708115,8.515129 -5.708115,13.939049 0,10.98269 8.92958,19.9107 19.912256,19.9107 10.982678,0 19.911227,-8.92801 19.911227,-19.9107 V 89.934116 Z m 4.81929,0 v 2.410161 h 18.42709 c 0.20657,0 0.41244,0.0052 0.61598,0.0155 0.20393,0.01034 0.40516,0.02563 0.60564,0.04599 0.20084,0.02039 0.40097,0.04631 0.59841,0.07648 0.19753,0.03018 0.39288,0.06465 0.58703,0.104385 0.19372,0.03964 0.38574,0.08471 0.57671,0.13384 0.19049,0.04901 0.38009,0.102099 0.56688,0.160195 0.37357,0.11619 0.73884,0.249624 1.09553,0.400489 0.35674,0.15089 0.70455,0.320079 1.04282,0.503839 0.33821,0.183727 0.66637,0.382335 0.98391,0.596857 0.31759,0.214561 0.62444,0.444447 0.91931,0.687805 0.29494,0.24341 0.57834,0.500831 0.84852,0.771003 0.27015,0.270161 0.52758,0.552533 0.771,0.847485 0.24336,0.294878 0.47221,0.601717 0.68677,0.919313 0.21453,0.31753 0.41469,0.646215 0.59841,0.984425 0.18376,0.338275 0.3514,0.686085 0.50229,1.042818 0.15087,0.356684 0.28429,0.723009 0.40048,1.096569 0.0581,0.1868 0.11222,0.37484 0.16123,0.56533 0.0491,0.19094 0.0931,0.38391 0.13281,0.57774 0.0397,0.19418 0.0752,0.3896 0.10542,0.58704 0.0302,0.19747 0.0552,0.39664 0.0755,0.59737 0.0204,0.20064 0.0367,0.40332 0.047,0.60719 0.0103,0.20349 0.0145,0.40885 0.0145,0.61546 0,0.24264 -0.006,0.48217 -0.0207,0.71984 -0.0142,0.2382 -0.0357,0.47448 -0.0636,0.70848 -0.0279,0.23397 -0.0621,0.46644 -0.10335,0.69608 -0.0411,0.22895 -0.0895,0.45647 -0.14366,0.68108 -0.0542,0.22489 -0.11428,0.44633 -0.18087,0.66559 -0.0666,0.2195 -0.13884,0.43736 -0.21755,0.65111 -0.0786,0.21327 -0.16351,0.42356 -0.25424,0.632 -0.0907,0.2083 -0.18677,0.41286 -0.28836,0.61391 l -0.27492,0.54414 0.27492,0.54312 c 0.10159,0.20104 0.19768,0.40563 0.28836,0.61391 0.0907,0.20845 0.17569,0.41923 0.25424,0.63251 0.0787,0.21376 0.1509,0.43109 0.21755,0.6506 0.0666,0.21925 0.1267,0.44069 0.18087,0.66558 0.0542,0.22496 0.10248,0.45224 0.14366,0.68212 0.0412,0.22986 0.0755,0.46096 0.10335,0.69504 0.0279,0.23403 0.0495,0.47037 0.0636,0.70847 0.0141,0.23768 0.0207,0.47773 0.0207,0.72037 0,0.2066 -0.005,0.41197 -0.0145,0.61546 -0.0103,0.20384 -0.0267,0.40606 -0.047,0.60667 -0.0204,0.20082 -0.0454,0.39987 -0.0755,0.59738 -0.0302,0.19756 -0.0657,0.393 -0.10542,0.58704 -0.0396,0.19373 -0.0837,0.38673 -0.13281,0.57773 -0.049,0.19048 -0.10313,0.37906 -0.16123,0.56586 -0.11619,0.37355 -0.24962,0.73989 -0.40048,1.09655 -0.15089,0.35673 -0.31853,0.70454 -0.50229,1.04282 -0.18372,0.33822 -0.38388,0.66638 -0.59841,0.98391 -0.21456,0.3176 -0.44341,0.62494 -0.68677,0.91983 -0.24342,0.29494 -0.50085,0.5768 -0.771,0.84697 -0.27018,0.27017 -0.55358,0.52761 -0.84852,0.771 -0.29487,0.24336 -0.60172,0.47377 -0.91931,0.68832 -0.31754,0.21453 -0.6457,0.41417 -0.98391,0.59789 -0.33827,0.18376 -0.68608,0.3514 -1.04282,0.50229 -0.35669,0.15086 -0.72196,0.28429 -1.09553,0.40049 -0.18679,0.0581 -0.3764,0.1112 -0.56688,0.1602 -0.19091,0.0491 -0.38287,0.0947 -0.57671,0.13435 -0.19419,0.0397 -0.38958,0.0742 -0.58703,0.10438 -0.19747,0.0302 -0.39664,0.0556 -0.59737,0.076 -0.20065,0.0204 -0.40281,0.0357 -0.60668,0.046 -0.20349,0.0103 -0.40937,0.0155 -0.61598,0.0155 h -26.91433 c -1.165119,0.92269 -2.423681,1.73122 -3.759936,2.40965 h 30.674266 c 0.24702,0 0.49346,-0.006 0.73793,-0.0181 0.2441,-0.0124 0.48595,-0.0314 0.72709,-0.0558 0.24105,-0.0245 0.48072,-0.0547 0.71829,-0.0909 0.23758,-0.0363 0.47285,-0.0783 0.70641,-0.12609 0.23389,-0.0479 0.46606,-0.10128 0.69504,-0.1602 0.22942,-0.059 0.45639,-0.1239 0.68108,-0.19379 0.44943,-0.13979 0.88985,-0.301 1.31929,-0.48264 0.42937,-0.1816 0.84711,-0.38428 1.25365,-0.60514 0.40663,-0.22086 0.80179,-0.4605 1.18338,-0.71829 0.38154,-0.25776 0.75016,-0.53299 1.10432,-0.82526 0.35408,-0.29221 0.69416,-0.60117 1.01853,-0.92552 0.32437,-0.32436 0.6333,-0.66444 0.92552,-1.01853 0.29227,-0.35415 0.56803,-0.72277 0.82577,-1.1043 0.25779,-0.3816 0.49741,-0.77575 0.7183,-1.18235 0.22085,-0.40656 0.42196,-0.82531 0.60357,-1.25469 0.18164,-0.42944 0.34338,-0.86885 0.48317,-1.31825 0.0699,-0.2247 0.13425,-0.4527 0.19327,-0.68212 0.0589,-0.2289 0.1123,-0.45999 0.16019,-0.69401 0.0478,-0.23368 0.0898,-0.46891 0.12661,-0.70641 0.0368,-0.2375 0.067,-0.47732 0.0915,-0.71829 0.0245,-0.24117 0.0425,-0.48398 0.0548,-0.72811 0.0124,-0.24449 0.0186,-0.49093 0.0186,-0.73793 0,-0.2892 -0.009,-0.57666 -0.0258,-0.86299 -0.017,-0.28588 -0.0414,-0.56986 -0.0749,-0.8511 -0.0335,-0.28119 -0.0755,-0.55951 -0.12506,-0.83561 -0.0496,-0.2764 -0.107,-0.54943 -0.17208,-0.81958 -0.0651,-0.27022 -0.13726,-0.53811 -0.21755,-0.80252 -0.0802,-0.26415 -0.16817,-0.52533 -0.26303,-0.78289 -0.095,-0.25805 -0.19726,-0.51153 -0.30593,-0.76118 -0.0289,-0.0663 -0.0622,-0.13055 -0.092,-0.19637 0.0297,-0.0656 0.0633,-0.12932 0.092,-0.19534 0.10867,-0.24964 0.21089,-0.50312 0.30593,-0.76118 0.0949,-0.25756 0.18282,-0.51874 0.26303,-0.78289 0.0803,-0.26441 0.15247,-0.53178 0.21755,-0.80201 0.0651,-0.27018 0.12246,-0.54375 0.17208,-0.82009 0.0495,-0.27599 0.0916,-0.55429 0.12506,-0.8356 0.0335,-0.28127 0.0579,-0.5653 0.0749,-0.8511 0.017,-0.28634 0.0258,-0.5738 0.0258,-0.86299 0,-0.24702 -0.006,-0.49347 -0.0186,-0.73793 -0.0124,-0.24411 -0.0304,-0.48698 -0.0548,-0.72811 -0.0245,-0.24106 -0.0557,-0.48071 -0.0915,-0.71779 -0.0358,-0.23707 -0.0788,-0.47336 -0.12661,-0.70692 -0.0479,-0.23391 -0.1013,-0.46504 -0.16019,-0.694 -0.059,-0.22941 -0.12338,-0.45742 -0.19327,-0.68212 -0.13979,-0.44944 -0.30154,-0.888828 -0.48317,-1.318262 -0.18161,-0.429373 -0.38272,-0.848141 -0.60357,-1.25469 -0.2209,-0.406611 -0.4605,-0.800747 -0.7183,-1.182343 -0.25775,-0.381534 -0.5335,-0.750159 -0.82577,-1.104313 -0.29222,-0.354081 -0.60115,-0.693642 -0.92552,-1.018015 -0.32437,-0.32436 -0.66445,-0.633813 -1.01853,-0.92603 -0.35416,-0.292274 -0.72277,-0.567505 -1.10432,-0.825264 -0.38159,-0.257803 -0.77676,-0.497408 -1.18338,-0.718294 -0.40654,-0.220851 -0.82429,-0.423517 -1.25365,-0.605124 -0.42943,-0.181632 -0.86985,-0.342865 -1.31929,-0.482653 -0.2247,-0.06989 -0.45167,-0.134762 -0.68108,-0.193785 -0.22892,-0.0589 -0.46103,-0.112308 -0.69504,-0.160195 -0.2336,-0.0478 -0.46891,-0.0898 -0.70641,-0.126088 -0.2376,-0.0363 -0.47633,-0.06648 -0.71726,-0.09095 -0.24131,-0.0245 -0.48408,-0.04344 -0.72812,-0.05581 -0.24442,-0.01239 -0.49088,-0.01808 -0.73793,-0.01809 z m 0,4.819289 v 2.409645 l 18.42709,0.001 c 0.24606,1e-5 0.48927,0.01284 0.72915,0.03721 0.23995,0.02438 0.47546,0.06022 0.70641,0.107486 0.2309,0.04726 0.4586,0.105296 0.68161,0.174664 0.22276,0.06929 0.44023,0.149405 0.65266,0.239259 0.21273,0.08998 0.4196,0.189712 0.62114,0.299204 0.2018,0.10962 0.3984,0.228759 0.58756,0.356563 0.18935,0.127924 0.37239,0.265672 0.54828,0.410823 0.17577,0.145066 0.3441,0.298116 0.50538,0.459398 0.16086,0.160852 0.31452,0.329719 0.45992,0.505906 0.14545,0.176237 0.2821,0.359257 0.4098,0.548277 0.12779,0.18915 0.24692,0.38472 0.35656,0.58653 0.10948,0.20153 0.21026,0.40893 0.30024,0.62166 0.0901,0.21311 0.16916,0.43062 0.23822,0.65266 0.0692,0.22233 0.1283,0.45053 0.17569,0.68213 0.0474,0.2317 0.0832,0.46619 0.10749,0.70537 0.0243,0.23922 0.0372,0.4835 0.0372,0.73018 0,0.24763 -0.0136,0.49142 -0.0382,0.73276 -0.0247,0.24148 -0.0607,0.47841 -0.10852,0.71054 -0.0479,0.23271 -0.10717,0.46145 -0.17724,0.68523 -0.0699,0.22329 -0.15064,0.44217 -0.24185,0.65628 -0.0911,0.21396 -0.19214,0.42257 -0.30282,0.62476 -0.11061,0.20205 -0.23208,0.3988 -0.36173,0.5891 -0.12965,0.19032 -0.26786,0.37335 -0.41444,0.54932 -0.14683,0.17628 -0.30212,0.34567 -0.46508,0.50694 l -0.86506,0.85627 0.86506,0.85627 c 0.16273,0.16107 0.31812,0.33047 0.46508,0.50694 0.14671,0.17617 0.28492,0.35915 0.41444,0.54931 0.12937,0.18994 0.24981,0.38653 0.36069,0.5891 0.11088,0.20257 0.21288,0.41119 0.30386,0.62477 0.0908,0.21325 0.17162,0.43251 0.24185,0.6568 0.0701,0.22385 0.12928,0.45192 0.17724,0.6847 0.048,0.23294 0.0839,0.47079 0.10852,0.71158 0.0247,0.24138 0.0382,0.48508 0.0382,0.73277 0,0.24666 -0.0129,0.49095 -0.0372,0.73018 -0.0243,0.23913 -0.06,0.47361 -0.10749,0.70537 -0.0474,0.23159 -0.10654,0.46028 -0.17569,0.68263 -0.0691,0.22204 -0.14808,0.43904 -0.23822,0.65215 -0.09,0.21272 -0.19075,0.4201 -0.30024,0.62167 -0.10963,0.20179 -0.22875,0.39734 -0.35656,0.58652 -0.12769,0.18901 -0.26433,0.37201 -0.4098,0.54828 -0.14539,0.17617 -0.29905,0.34555 -0.45992,0.50642 -0.16127,0.16128 -0.32959,0.31381 -0.50538,0.45888 -0.17589,0.14516 -0.35892,0.2829 -0.54828,0.41083 -0.18915,0.12781 -0.38577,0.24694 -0.58756,0.35656 -0.20156,0.10949 -0.40844,0.20923 -0.62114,0.2992 -0.21311,0.0901 -0.43061,0.17019 -0.65266,0.23926 -0.22236,0.0692 -0.45003,0.12728 -0.68161,0.17467 -0.2317,0.0474 -0.46721,0.0832 -0.70641,0.10749 -0.23921,0.0243 -0.48247,0.0372 -0.72915,0.0372 h -22.39011 c -0.58702,0.84739 -1.22982,1.65329 -1.92544,2.41016 h 24.31555 c 0.32783,0 0.65226,-0.0166 0.97254,-0.0491 0.32032,-0.0325 0.63564,-0.0807 0.94567,-0.14418 0.31013,-0.0635 0.61522,-0.14215 0.91467,-0.23513 0.29946,-0.093 0.59122,-0.20049 0.8759,-0.3209 0.28484,-0.12047 0.56266,-0.25446 0.8325,-0.40101 0.26988,-0.1466 0.53244,-0.3067 0.78599,-0.47799 0.25336,-0.17117 0.4987,-0.35374 0.73379,-0.54777 0.2352,-0.19409 0.4602,-0.3987 0.67541,-0.61391 0.21561,-0.21561 0.42064,-0.44162 0.61443,-0.67643 0.19372,-0.23475 0.37686,-0.47906 0.54827,-0.73277 0.17129,-0.25354 0.33039,-0.51562 0.47698,-0.78547 0.14673,-0.2701 0.28101,-0.54764 0.40151,-0.83302 0.12049,-0.28538 0.22788,-0.57731 0.32091,-0.87642 0.0929,-0.29881 0.17218,-0.6035 0.23565,-0.91363 0.0634,-0.30997 0.1106,-0.62581 0.14313,-0.94618 0.0325,-0.32027 0.0501,-0.64524 0.0501,-0.97306 0,-0.33054 -0.0172,-0.65657 -0.0501,-0.97822 -0.0329,-0.32224 -0.0819,-0.63982 -0.14623,-0.95187 -0.0643,-0.31219 -0.14473,-0.6196 -0.23875,-0.91983 -0.0939,-0.29981 -0.20224,-0.5935 -0.32453,-0.88056 -0.12215,-0.28675 -0.25672,-0.56603 -0.40513,-0.83715 -0.14842,-0.27116 -0.30943,-0.53425 -0.48266,-0.78857 -0.13099,-0.19232 -0.27621,-0.37461 -0.42063,-0.55655 0.14445,-0.18198 0.28872,-0.3639 0.4196,-0.55603 0.17298,-0.25391 0.33501,-0.51697 0.48369,-0.78857 0.14861,-0.27149 0.28316,-0.55035 0.40513,-0.83664 0.1219,-0.28615 0.23141,-0.58038 0.32557,-0.88107 0.094,-0.30022 0.17341,-0.60662 0.23771,-0.9188 0.0644,-0.31275 0.11338,-0.63041 0.14623,-0.95187 0.0329,-0.32158 0.0501,-0.64772 0.0501,-0.97822 0,-0.32783 -0.0176,-0.65328 -0.0501,-0.97357 -0.0325,-0.32032 -0.0797,-0.63566 -0.14313,-0.94567 -0.0635,-0.31013 -0.14272,-0.61482 -0.23565,-0.91363 -0.093,-0.29911 -0.20042,-0.59105 -0.32091,-0.87642 -0.1205,-0.28537 -0.25477,-0.5629 -0.40151,-0.83302 -0.14659,-0.269837 -0.30568,-0.531916 -0.47698,-0.785472 -0.1714,-0.253686 -0.35453,-0.498014 -0.54827,-0.732764 -0.19378,-0.234803 -0.3988,-0.460813 -0.61443,-0.676437 -0.2152,-0.215196 -0.44019,-0.419796 -0.67541,-0.613909 -0.23509,-0.194023 -0.48042,-0.377112 -0.73379,-0.548281 -0.25354,-0.171286 -0.51509,-0.330887 -0.78496,-0.477485 -0.2701,-0.146729 -0.54845,-0.280424 -0.83353,-0.401004 -0.28537,-0.1207 -0.577,-0.227578 -0.87539,-0.320391 -0.29815,-0.09274 -0.60437,-0.172031 -0.91518,-0.235641 -0.31079,-0.06361 -0.6261,-0.112228 -0.94567,-0.144692 -0.31962,-0.03247 -0.64409,-0.04856 -0.97254,-0.04858 z m 0,4.819807 v 2.409638 h 18.42709 c 1.28341,0 2.29752,1.01413 2.29752,2.29752 0,1.2834 -1.01418,2.2986 -2.29752,2.29853 l -18.42709,-0.001 v 2.40965 l 18.42709,0.001 c 2.58589,1.4e-4 4.70871,-2.12237 4.70871,-4.70819 0,-2.58581 -2.12289,-4.707158 -4.70871,-4.707158 z m -0.0212,11.824468 c -0.0309,0.81503 -0.10329,1.6196 -0.21963,2.41016 h 18.6679 c 1.28341,0 2.29752,1.01462 2.29752,2.29803 0,1.28338 -1.01418,2.29758 -2.29752,2.29751 l -19.85903,-0.001 c -0.31247,0.82811 -0.67415,1.63213 -1.07898,2.41016 l 20.93801,0.001 c 2.58589,1.2e-4 4.70871,-2.12185 4.70871,-4.70766 0,-2.58583 -2.12289,-4.70819 -4.70871,-4.70819 z" /></g><metadata
     id="metadata64"><rdf:RDF><cc:Work
         rdf:about=""><dc:title>Janata Bank PLC. - জনতা ব্যাংক পিএলসি</dc:title></cc:Work></rdf:RDF></metadata></svg>
