<svg width="901" height="764" viewBox="0 0 901 764" fill="none" xmlns="http://www.w3.org/2000/svg"><g clip-path="url(#prefix__clip0_1534_15303)"><path transform="matrix(.86603 .5 -.86603 .5 996.847 349.082)" fill="url(#prefix__paint0_linear_1534_15303)" d="M0 0h601.776v601.776H0z"/><path transform="matrix(.86603 .5 -.86603 .5 996.847 349.082)" fill="url(#prefix__paint1_diamond_1534_15303)" fill-opacity=".3" d="M0 0h601.776v601.776H0z"/><path transform="matrix(.86603 .5 -.86603 .5 211.86 131.878)" fill="url(#prefix__paint2_linear_1534_15303)" d="M0 0h371.652v371.652H0z"/><path transform="matrix(.86603 .5 -.86603 .5 211.86 131.878)" fill="url(#prefix__paint3_diamond_1534_15303)" d="M0 0h371.652v371.652H0z"/><path d="M313.105 407.572l125.499-72.458M444.318 338.299l-11.43-6.598" stroke="#fff" stroke-width="1.384"/><circle r="2.558" transform="scale(1.22477 .70706) rotate(-45 810.575 -19.284)" stroke="#fff" stroke-width="1.384"/><path transform="matrix(.86603 .5 -.86603 .5 602.872 -87)" fill="url(#prefix__paint4_linear_1534_15303)" d="M0 0h448.472v448.472H0z"/><path transform="matrix(.86603 .5 -.86603 .5 602.872 -87)" fill="url(#prefix__paint5_diamond_1534_15303)" fill-opacity=".8" d="M0 0h448.472v448.472H0z"/><path d="M675.348 403.405l72.301-41.742V564.02l-72.301 41.743V403.405z" fill="url(#prefix__paint6_linear_1534_15303)" fill-opacity=".7"/><path d="M675.348 403.405l-72.3-41.743v266.004l72.3 41.743V403.405z" fill="url(#prefix__paint7_linear_1534_15303)" fill-opacity=".65"/><path d="M602.843 277.861l72.504-41.86v83.72l-72.504 41.859v-83.719z" fill="#5A00CC" fill-opacity=".38"/><path d="M747.848 277.861l-72.503-41.86v83.72l72.503 41.859v-83.719z" fill="#56009A" fill-opacity=".38"/><path transform="matrix(-.86603 -.5 .86603 -.5 675.114 319.835)" fill="url(#prefix__paint8_linear_1534_15303)" d="M0 0h83.72v83.72H0z"/><path transform="matrix(-.86603 -.5 .86603 -.5 675.114 403.331)" fill="url(#prefix__paint9_linear_1534_15303)" fill-opacity=".9" d="M0 0h83.72v83.72H0z"/><path d="M675.374 319.72l-72.504-41.859v83.719l72.504 41.86v-83.72z" fill="url(#prefix__paint10_linear_1534_15303)" fill-opacity=".9"/><path d="M675.345 319.7l72.503-41.86v83.72l-72.503 41.86V319.7z" fill="url(#prefix__paint11_linear_1534_15303)" fill-opacity=".9"/><g opacity=".75"><path d="M900.507 188.145l59.69-34.462v167.064l-59.69 34.462V188.145z" fill="url(#prefix__paint12_linear_1534_15303)" fill-opacity=".6"/><path d="M900.507 188.145l-59.691-34.462v219.609l59.691 34.462V188.145z" fill="url(#prefix__paint13_linear_1534_15303)" fill-opacity=".6"/><path d="M840.719 84.744l59.69-34.462v68.924l-59.69 34.462V84.744z" fill="url(#prefix__paint14_linear_1534_15303)" fill-opacity=".7"/><path d="M960.253 84.744l-59.69-34.462v68.924l59.69 34.462V84.744z" fill="url(#prefix__paint15_linear_1534_15303)" fill-opacity=".5"/><path transform="matrix(-.86603 -.5 .86603 -.5 900.508 119.206)" fill="url(#prefix__paint16_radial_1534_15303)" fill-opacity=".8" d="M0 0h68.924v68.924H0z"/><path transform="matrix(-.86603 -.5 .86603 -.5 900.484 188.174)" fill="url(#prefix__paint17_linear_1534_15303)" fill-opacity=".7" d="M0 0h69.011v69.011H0z"/><path d="M900.409 119.206l-59.69-34.462v68.924l59.69 34.463v-68.925z" fill="url(#prefix__paint18_linear_1534_15303)" fill-opacity=".6"/><path d="M900.563 119.206l59.69-34.462v68.924l-59.69 34.463v-68.925z" fill="url(#prefix__paint19_linear_1534_15303)" fill-opacity=".6"/></g><rect x="1.199" width="57.49" height="57.49" rx="6.229" transform="scale(1.22477 .70706) rotate(-45 651.846 -450.988)" stroke="#fff" stroke-width="1.384"/><path transform="scale(1.22477 .70706) rotate(-45 685.527 -532.302)" stroke="#fff" stroke-width="1.384" d="M1.199 0H5.34v4.141H1.199z"/><path d="M813.659 314.895l136.649-78.894M813.659 321.733l136.648-78.894M813.659 328.57l136.648-78.894M813.659 335.407l136.648-78.894M813.659 342.245l136.648-78.895M813.659 349.082l136.648-78.894" stroke="#000" stroke-width="1.507"/><g opacity=".6"><path d="M457.893 217.915l35.636-20.574v99.738l-35.636 20.574v-99.738z" fill="url(#prefix__paint20_linear_1534_15303)" fill-opacity=".7"/><path d="M457.894 217.915l-35.636-20.574v131.107l35.636 20.574V217.915z" fill="url(#prefix__paint21_linear_1534_15303)" fill-opacity=".65"/><path d="M422.158 156.036l35.735-20.631v41.263L422.158 197.3v-41.264z" fill="#5A00CC" fill-opacity=".38"/><path d="M493.627 156.036l-35.735-20.631v41.263l35.735 20.632v-41.264z" fill="#56009A" fill-opacity=".38"/><path transform="matrix(-.86603 -.5 .86603 -.5 457.778 176.725)" fill="url(#prefix__paint22_linear_1534_15303)" d="M0 0h41.264v41.264H0z"/><path transform="matrix(-.86603 -.5 .86603 -.5 457.778 217.879)" fill="url(#prefix__paint23_linear_1534_15303)" fill-opacity=".9" d="M0 0h41.264v41.264H0z"/><path d="M457.906 176.668l-35.735-20.631V197.3l35.735 20.632v-41.264z" fill="url(#prefix__paint24_linear_1534_15303)" fill-opacity=".9"/><path d="M457.892 176.658l35.735-20.631v41.263l-35.735 20.632v-41.264z" fill="url(#prefix__paint25_linear_1534_15303)" fill-opacity=".9"/></g><path fill="url(#prefix__paint26_linear_1534_15303)" d="M768 2h134v764H768z"/></g><defs><linearGradient id="prefix__paint0_linear_1534_15303" x1="601.706" y1="602.061" x2="225.83" y2="226.185" gradientUnits="userSpaceOnUse"><stop stop-color="#1C1C1C"/><stop offset="1" stop-opacity="0"/></linearGradient><linearGradient id="prefix__paint2_linear_1534_15303" x1="371.609" y1="371.828" x2="139.471" y2="139.69" gradientUnits="userSpaceOnUse"><stop offset=".098" stop-color="#1C1C1C"/><stop offset="1" stop-opacity="0"/></linearGradient><linearGradient id="prefix__paint4_linear_1534_15303" x1="448.42" y1="448.684" x2="168.299" y2="168.564" gradientUnits="userSpaceOnUse"><stop stop-color="#1C1C1C"/><stop offset="1" stop-opacity="0"/></linearGradient><linearGradient id="prefix__paint6_linear_1534_15303" x1="705.236" y1="320.602" x2="718.77" y2="510.765" gradientUnits="userSpaceOnUse"><stop stop-color="#532A7D"/><stop offset="1" stop-color="#33197C" stop-opacity="0"/></linearGradient><linearGradient id="prefix__paint7_linear_1534_15303" x1="667.158" y1="325.649" x2="613.251" y2="521.317" gradientUnits="userSpaceOnUse"><stop stop-color="#9C65D5"/><stop offset="1" stop-color="#522AC2" stop-opacity="0"/></linearGradient><linearGradient id="prefix__paint8_linear_1534_15303" x1="87.224" y1="18.266" x2="-5.502" y2="72.613" gradientUnits="userSpaceOnUse"><stop stop-color="#E9F3FF" stop-opacity=".92"/><stop offset=".5" stop-color="#A35BFF" stop-opacity=".88"/><stop offset=".987" stop-color="#3A07CD" stop-opacity=".8"/></linearGradient><linearGradient id="prefix__paint9_linear_1534_15303" x1="93.654" y1="-2.448" x2="-11.502" y2="81.306" gradientUnits="userSpaceOnUse"><stop stop-color="#D1DBFF"/><stop offset=".479" stop-color="#A975FF" stop-opacity=".45"/><stop offset=".987" stop-color="#552ACE" stop-opacity=".65"/></linearGradient><linearGradient id="prefix__paint10_linear_1534_15303" x1="602.87" y1="274.558" x2="671.665" y2="403.44" gradientUnits="userSpaceOnUse"><stop stop-color="#A5B3FF" stop-opacity=".99"/><stop offset=".596" stop-color="#7622CA" stop-opacity=".998"/><stop offset="1" stop-color="#2E2C9F"/></linearGradient><linearGradient id="prefix__paint11_linear_1534_15303" x1="750.323" y1="277.84" x2="675.345" y2="405.957" gradientUnits="userSpaceOnUse"><stop stop-color="#863BE7" stop-opacity=".76"/><stop offset="1" stop-color="#0F1B5C" stop-opacity=".81"/></linearGradient><linearGradient id="prefix__paint12_linear_1534_15303" x1="925.182" y1="119.784" x2="936.355" y2="276.78" gradientUnits="userSpaceOnUse"><stop stop-color="#020202"/><stop offset="1" stop-opacity="0"/></linearGradient><linearGradient id="prefix__paint13_linear_1534_15303" x1="893.745" y1="123.95" x2="849.241" y2="285.491" gradientUnits="userSpaceOnUse"><stop stop-color="#4B4B4B"/><stop offset="1" stop-color="#252525" stop-opacity="0"/></linearGradient><linearGradient id="prefix__paint14_linear_1534_15303" x1="894.571" y1="60.572" x2="833.988" y2="133.28" gradientUnits="userSpaceOnUse"><stop offset=".151" stop-color="#141414"/><stop offset="1" stop-color="#282828"/></linearGradient><linearGradient id="prefix__paint15_linear_1534_15303" x1="906.401" y1="60.572" x2="966.984" y2="133.28" gradientUnits="userSpaceOnUse"><stop stop-color="#0A0A0A"/><stop offset=".948"/></linearGradient><linearGradient id="prefix__paint17_linear_1534_15303" x1="62.261" y1="6.929" x2="1.805" y2="56.418" gradientUnits="userSpaceOnUse"><stop stop-color="#4B4B4B"/><stop offset="1" stop-color="#252525"/></linearGradient><linearGradient id="prefix__paint18_linear_1534_15303" x1="846.557" y1="95.034" x2="907.14" y2="167.742" gradientUnits="userSpaceOnUse"><stop stop-color="#4B4B4B"/><stop offset="1" stop-color="#252525"/></linearGradient><linearGradient id="prefix__paint19_linear_1534_15303" x1="954.415" y1="95.034" x2="893.832" y2="167.742" gradientUnits="userSpaceOnUse"><stop stop-color="#090909"/><stop offset="1"/></linearGradient><linearGradient id="prefix__paint20_linear_1534_15303" x1="472.625" y1="177.103" x2="479.295" y2="270.83" gradientUnits="userSpaceOnUse"><stop stop-color="#532A7D"/><stop offset="1" stop-color="#33197C" stop-opacity="0"/></linearGradient><linearGradient id="prefix__paint21_linear_1534_15303" x1="453.857" y1="179.59" x2="427.287" y2="276.031" gradientUnits="userSpaceOnUse"><stop stop-color="#9C65D5"/><stop offset="1" stop-color="#522AC2" stop-opacity="0"/></linearGradient><linearGradient id="prefix__paint22_linear_1534_15303" x1="42.991" y1="9.003" x2="-2.712" y2="35.789" gradientUnits="userSpaceOnUse"><stop stop-color="#E9F3FF" stop-opacity=".92"/><stop offset=".5" stop-color="#A35BFF" stop-opacity=".88"/><stop offset=".987" stop-color="#3A07CD" stop-opacity=".8"/></linearGradient><linearGradient id="prefix__paint23_linear_1534_15303" x1="46.16" y1="-1.207" x2="-5.669" y2="40.074" gradientUnits="userSpaceOnUse"><stop stop-color="#D1DBFF"/><stop offset=".479" stop-color="#A975FF" stop-opacity=".45"/><stop offset=".987" stop-color="#552ACE" stop-opacity=".65"/></linearGradient><linearGradient id="prefix__paint24_linear_1534_15303" x1="422.171" y1="154.409" x2="456.078" y2="217.932" gradientUnits="userSpaceOnUse"><stop stop-color="#A5B3FF" stop-opacity=".99"/><stop offset=".596" stop-color="#7622CA" stop-opacity=".998"/><stop offset="1" stop-color="#2E2C9F"/></linearGradient><linearGradient id="prefix__paint25_linear_1534_15303" x1="494.847" y1="156.027" x2="457.892" y2="219.172" gradientUnits="userSpaceOnUse"><stop stop-color="#863BE7" stop-opacity=".76"/><stop offset="1" stop-color="#0F1B5C" stop-opacity=".81"/></linearGradient><linearGradient id="prefix__paint26_linear_1534_15303" x1="902" y1="349" x2="768" y2="349" gradientUnits="userSpaceOnUse"><stop/><stop offset="1" stop-opacity="0"/></linearGradient><radialGradient id="prefix__paint1_diamond_1534_15303" cx="0" cy="0" r="1" gradientUnits="userSpaceOnUse" gradientTransform="rotate(11.257 -1519.553 -225.826) scale(724.472 1522.74)"><stop stop-color="#07ABF1" stop-opacity=".72"/><stop offset=".419" stop-color="#5E14D8" stop-opacity=".69"/><stop offset="1" stop-color="#000637" stop-opacity="0"/></radialGradient><radialGradient id="prefix__paint3_diamond_1534_15303" cx="0" cy="0" r="1" gradientUnits="userSpaceOnUse" gradientTransform="rotate(-160.027 283.304 119.444) scale(611.817 1006.25)"><stop offset=".173" stop-color="#63D0FF" stop-opacity=".54"/><stop offset=".751" stop-color="#000637" stop-opacity="0"/></radialGradient><radialGradient id="prefix__paint5_diamond_1534_15303" cx="0" cy="0" r="1" gradientUnits="userSpaceOnUse" gradientTransform="rotate(-135 347.806 144.176) scale(695.887 904.496)"><stop stop-color="#07ABF1" stop-opacity=".72"/><stop offset=".419" stop-color="#5E14D8" stop-opacity=".69"/><stop offset="1" stop-color="#000637" stop-opacity="0"/></radialGradient><radialGradient id="prefix__paint16_radial_1534_15303" cx="0" cy="0" r="1" gradientUnits="userSpaceOnUse" gradientTransform="rotate(135 43.113 10.765) scale(112.427 193.277)"><stop stop-color="#7D868C"/><stop offset=".532" stop-color="#3C3C3C"/><stop offset="1" stop-color="#212121"/></radialGradient><clipPath id="prefix__clip0_1534_15303"><path fill="#fff" d="M0 0h901v764H0z"/></clipPath></defs></svg>