<svg width="953" height="770" viewBox="0 0 953 770" fill="none" xmlns="http://www.w3.org/2000/svg"><g clip-path="url(#prefix__clip0_1526_15442)"><path transform="matrix(.86603 .5 -.86603 .5 1003.33 13)" fill="url(#prefix__paint0_linear_1526_15442)" d="M0 0h810.398v810.398H0z"/><g opacity=".5"><g filter="url(#prefix__filter0_d_1526_15442)"><rect width="227.952" height="227.952" rx="9" transform="scale(-1.22477 -.70706) rotate(45 576.635 -1260.16)" fill="url(#prefix__paint1_linear_1526_15442)"/></g><path opacity=".6" transform="matrix(.86604 .49997 .86604 -.49997 904.566 400.542)" stroke="#D3FDEB" stroke-width="1.042" stroke-dasharray="2.08 2.08" d="M.903 0h45.022v45.022H.903z"/><path fill-rule="evenodd" clip-rule="evenodd" d="M845.512 504.109l.452.26.451.261-.004.002.004.002-.451.261-.452.26-.004-.002-.451-.261-.451-.26.451-.261.451-.26.004-.002zm1.814 2.093l1.813 1.047.451-.26.452-.261-1.814-1.047-.451.261-.451.26zm4.078 1.833l-.452.261 1.814 1.047.451-.261.451-.26-1.813-1.047-.451.26zm3.626 2.094l-.451.261 1.814 1.046.451-.26.451-.261-1.813-1.046-.452.26zm3.627 2.094l-.451.26 1.813 1.047.451-.26.452-.261-1.814-1.047-.451.261zm3.627 2.094l-.451.26 1.813 1.047.451-.261.451-.26-1.813-1.047-.451.261zm3.627 2.093l-.452.261 1.814 1.047.451-.261.451-.26-1.813-1.047-.451.26zm3.626 2.094l-.451.26 1.813 1.047.452-.26.451-.261-1.813-1.047-.452.261zm3.627 2.094l-.451.26 1.813 1.047.451-.261.452-.26-1.814-1.047-.451.261zm3.627 2.093l-.452.261 1.814 1.047.451-.261.451-.26-1.813-1.047-.451.26zm3.626 2.094l-.451.261 1.814 1.046.451-.26.451-.261-1.813-1.046-.452.26zm3.627 2.094l-.451.26.004.003.451.26.452.261.451-.261.451-.26.004-.003-.451-.26-.451-.261-.004.003-.005-.003-.451.261zm2.724-1.047l.452.26 1.813-1.046-.451-.261-.452-.26-1.813 1.046.451.261zm3.627-2.094l.451.261 1.814-1.047-.452-.261-.451-.26-1.813 1.047.451.26zm3.627-2.094l.451.261 1.813-1.047-.451-.26-.451-.261-1.813 1.047.451.26zm3.627-2.093l.451.26 1.813-1.047-.451-.26-.451-.261-1.814 1.047.452.261zm3.626-2.094l.451.261 1.814-1.047-.451-.261-.452-.26-1.813 1.047.451.26zm3.627-2.094l.451.261 1.814-1.047-.452-.26-.451-.261-1.813 1.047.451.26zm3.627-2.093l.451.26 1.813-1.047-.451-.26-.451-.261-1.814 1.047.452.261zm3.626-2.094l.452.26 1.813-1.046-.451-.261-.452-.26-1.813 1.046.451.261zm3.627-2.094l.451.261 1.814-1.047-.452-.261-.451-.26-1.813 1.047.451.26zm3.627-2.093l.451.26 1.813-1.047-.451-.26-.451-.261-1.813 1.047.451.261zm3.627-2.094l.451.26.004-.002.451-.261.451-.26-.451-.261-.451-.26-.004-.002-.451.26-.452.261.004.002-.004.002.452.261zm-1.814-1.573l.451-.26-1.813-1.047-.451.26-.451.261 1.813 1.047.451-.261zm-3.627-2.094l.452-.26-1.814-1.047-.451.261-.451.26 1.813 1.047.451-.261zm-3.626-2.093l.451-.261-1.813-1.047-.452.261-.451.26 1.813 1.047.452-.26zm-3.627-2.094l.451-.26-1.813-1.047-.451.26-.452.261 1.814 1.047.451-.261zm-3.627-2.094l.452-.26-1.814-1.047-.451.261-.451.26 1.813 1.047.451-.261zm-3.626-2.093l.451-.261-1.814-1.047-.451.261-.451.26 1.813 1.047.452-.26zm-3.627-2.094l.451-.261-1.813-1.046-.451.26-.452.261 1.814 1.046.451-.26zm-3.627-2.094l.451-.26-1.813-1.047-.451.26-.451.261 1.813 1.047.451-.261zm-3.627-2.093l.452-.261-1.814-1.047-.451.261-.451.26 1.813 1.047.451-.26zm-3.626-2.094l.451-.261-1.813-1.047-.452.261-.451.26 1.813 1.047.452-.26zm-3.627-2.094l.451-.26-.004-.003-.451-.26-.451-.261-.452.261-.451.26-.004.003.451.26.451.261.005-.003.004.003.451-.261zm-2.724 1.047l-.451-.261-1.814 1.047.451.261.452.26 1.813-1.047-.451-.26zm-3.627 2.094l-.451-.261-1.814 1.047.452.261.451.26 1.813-1.047-.451-.26zm-3.627 2.093l-.451-.26-1.813 1.047.451.26.451.261 1.814-1.047-.452-.261zm-3.626 2.094l-.452-.26-1.813 1.046.451.261.452.26 1.813-1.046-.451-.261zm-3.627 2.094l-.451-.261-1.814 1.047.452.261.451.26 1.813-1.047-.451-.26zm-3.627 2.093l-.451-.26-1.813 1.047.451.26.451.261 1.813-1.047-.451-.261zm-3.627 2.094l-.451-.26-1.813 1.047.451.26.451.261 1.814-1.047-.452-.261zm-3.626 2.094l-.451-.261-1.814 1.047.451.261.452.26 1.813-1.047-.451-.26zm-3.627 2.094l-.451-.261-1.814 1.047.452.26.451.261 1.813-1.047-.451-.26zm-3.627 2.093l-.451-.26-1.813 1.047.451.26.451.261 1.814-1.047-.452-.261zm-84.773-43.705l-39.894-23.031 39.894-23.031 39.894 23.031-39.894 23.031zm59.843-34.546l-39.894-23.031 39.894-23.031 39.894 23.031-39.894 23.031zm21.305-57.84l-.452-.261-.004.003-.451.26-.451.261.451.26.451.261.004.002.452-.26.451-.261-.004-.002.004-.003-.451-.26zm3.175 2.88l-1.813-1.047.451-.26.451-.261 1.814 1.047-.452.26-.451.261zm1.813 1.047l.452-.261.451-.26 1.813 1.047-.451.26-.451.261-1.814-1.047zm3.627 2.094l.451-.261.452-.26 1.813 1.046-.451.261-.452.26-1.813-1.046zm3.627 2.093l.451-.26.451-.261 1.814 1.047-.452.261-.451.26-1.813-1.047zm3.627 2.094l.451-.261.451-.26 1.813 1.047-.451.26-.451.261-1.813-1.047zm3.626 2.094l.451-.261.452-.26 1.813 1.047-.451.26-.451.261-1.814-1.047zm3.627 2.093l.451-.26.451-.261 1.814 1.047-.451.261-.452.26-1.813-1.047zm3.627 2.094l.451-.26.451-.261 1.814 1.047-.452.26-.451.261-1.813-1.047zm3.626 2.094l.452-.261.451-.26 1.813 1.047-.451.26-.451.261-1.814-1.047zm3.627 2.093l.451-.26.452-.261 1.813 1.047-.451.261-.452.26-1.813-1.047zm3.627 2.094l.451-.26.451-.261.005.003.004-.003.451.261.451.26-.004.003-.451.26-.451.261-.452-.261-.451-.26-.004-.003zm3.627-1.047l-.452-.26-.451-.261 1.813-1.047.452.261.451.26-1.813 1.047zm3.626-2.093l-.451-.261-.451-.26 1.813-1.047.451.26.452.261-1.814 1.047zm3.627-2.094l-.451-.261-.452-.26 1.814-1.047.451.261.451.26-1.813 1.047zm3.627-2.094l-.452-.26-.451-.261 1.814-1.047.451.261.451.26-1.813 1.047zm3.626-2.093l-.451-.261-.451-.26 1.813-1.047.452.26.451.261-1.814 1.047zm3.627-2.094l-.451-.261-.451-.26 1.813-1.047.451.26.451.261-1.813 1.047zm3.627-2.094l-.451-.26-.452-.261 1.814-1.047.451.261.451.26-1.813 1.047zm3.627-2.094l-.452-.26-.451-.261 1.813-1.046.452.26.451.261-1.813 1.046zm3.626-2.093l-.451-.261-.451-.26 1.813-1.047.451.26.452.261-1.814 1.047zm3.627-2.094l-.451-.261-.452-.26 1.814-1.047.451.261.451.26-1.813 1.047zm3.627-2.094l-.452-.26-.451-.261.004-.002-.004-.003.451-.26.452-.261.004.003.451.26.451.261-.451.26-.451.261-.004.002zm-1.814-2.093l-.451.26-.451.261-1.814-1.047.452-.261.451-.26 1.813 1.047zm-3.626-2.094l-.452.26-.451.261-1.813-1.047.451-.26.451-.261 1.814 1.047zm-3.627-2.094l-.451.261-.452.26-1.813-1.047.451-.26.452-.261 1.813 1.047zm-3.627-2.094l-.451.261-.451.261-1.814-1.047.452-.261.451-.26 1.813 1.046zm-3.627-2.093l-.451.26-.451.261-1.813-1.047.451-.261.451-.26 1.813 1.047zm-3.626-2.094l-.451.261-.452.26-1.813-1.047.451-.26.451-.261 1.814 1.047zm-3.627-2.094l-.451.261-.451.26-1.814-1.046.451-.261.452-.26 1.813 1.046zm-3.627-2.093l-.451.26-.451.261-1.814-1.047.452-.261.451-.26 1.813 1.047zm-3.626-2.094l-.452.26-.451.261-1.813-1.047.451-.26.451-.261 1.814 1.047zm-3.627-2.094l-.451.261-.452.26-1.813-1.047.451-.26.452-.261 1.813 1.047zm-3.627-2.093l-.451.26-.451.261-.005-.003-.004.003-.451-.261-.451-.26.004-.003.451-.26.451-.261.452.261.451.26.004.003zm-3.627 1.046l.452.261.451.26-1.813 1.047-.452-.26-.451-.261 1.813-1.047zm-3.626 2.094l.451.261.451.26-1.813 1.047-.451-.261-.452-.26 1.814-1.047zm-3.627 2.094l.451.26.452.261-1.814 1.047-.451-.261-.451-.26 1.813-1.047zm-3.627 2.094l.452.26.451.261-1.814 1.046-.451-.26-.451-.261 1.813-1.046zm-3.626 2.093l.451.261.451.26-1.813 1.047-.452-.26-.451-.261 1.814-1.047zm-3.627 2.094l.451.26.451.261-1.813 1.047-.451-.261-.451-.26 1.813-1.047zm-3.627 2.094l.451.26.452.261-1.814 1.047-.451-.261-.451-.261 1.813-1.046zm-3.627 2.093l.452.261.451.26-1.813 1.047-.452-.26-.451-.261 1.813-1.047zm-3.626 2.094l.451.261.451.26-1.813 1.047-.451-.261-.452-.26 1.814-1.047zm-3.627 2.094l.451.26.452.261-1.814 1.047-.451-.261-.451-.26 1.813-1.047zm-24.48 129.286l-39.894-23.031 39.894-23.031 39.894 23.031-39.894 23.031zm21.305-57.84l-.452-.26-.004.002-.451.261-.451.26.451.261.451.26.004.003.452-.261.451-.26-.004-.003.004-.002-.451-.261zm3.175 2.88l-1.813-1.047.451-.26.451-.261 1.814 1.047-.452.261-.451.26zm1.813 1.047l.452-.26.451-.261 1.813 1.047-.451.26-.451.261-1.814-1.047zm3.627 2.094l.451-.261.452-.26 1.813 1.047-.451.26-.452.261-1.813-1.047zm3.627 2.094l.451-.261.451-.261 1.814 1.047-.452.261-.451.26-1.813-1.046zm3.627 2.093l.451-.26.451-.261 1.813 1.047-.451.261-.451.26-1.813-1.047zm3.626 2.094l.451-.261.452-.26 1.813 1.047-.451.26-.451.261-1.814-1.047zm3.627 2.094l.451-.261.451-.26 1.814 1.046-.451.261-.452.26-1.813-1.046zm3.627 2.093l.451-.26.451-.261 1.814 1.047-.452.261-.451.26-1.813-1.047zm3.626 2.094l.452-.26.451-.261 1.813 1.047-.451.26-.451.261-1.814-1.047zm3.627 2.094l.451-.261.452-.26 1.813 1.047-.451.26-.452.261-1.813-1.047zm3.627 2.093l.451-.26.451-.261.004.003.005-.003.451.261.451.26-.004.003-.451.26-.452.261-.451-.261-.451-.26-.004-.003zm3.627-1.046l-.452-.261-.451-.26 1.813-1.047.452.26.451.261-1.813 1.047zm3.626-2.094l-.451-.261-.451-.26 1.813-1.047.451.261.452.26-1.814 1.047zm3.627-2.094l-.451-.26-.452-.261 1.814-1.047.451.261.451.26-1.813 1.047zm3.627-2.094l-.452-.26-.451-.261 1.814-1.046.451.26.451.261-1.813 1.046zm3.626-2.093l-.451-.261-.451-.26 1.813-1.047.452.26.451.261-1.814 1.047zm3.627-2.094l-.451-.26-.451-.261 1.813-1.047.451.261.451.26-1.813 1.047zm3.627-2.094l-.451-.26-.452-.261 1.814-1.047.451.261.451.261-1.813 1.046zm3.627-2.093l-.452-.261-.451-.26 1.813-1.047.452.26.451.261-1.813 1.047zm3.626-2.094l-.451-.261-.451-.26 1.813-1.047.451.261.452.26-1.814 1.047zm3.627-2.094l-.451-.26-.452-.261 1.814-1.047.451.261.451.26-1.813 1.047zm3.627-2.093l-.452-.261-.451-.26.004-.003-.004-.002.451-.261.452-.26.004.002.451.261.451.26-.451.261-.451.26-.004.003zm-1.814-2.094l-.451.26-.451.261-1.814-1.047.452-.261.451-.26 1.813 1.047zm-3.626-2.094l-.452.261-.451.26-1.813-1.047.451-.26.451-.261 1.814 1.047zm-3.627-2.094l-.451.261-.452.26-1.813-1.046.451-.261.452-.26 1.813 1.046zm-3.627-2.093l-.451.26-.451.261-1.814-1.047.452-.261.451-.26 1.813 1.047zm-3.627-2.094l-.451.261-.451.26-1.813-1.047.451-.26.451-.261 1.813 1.047zm-3.626-2.094l-.451.261-.452.26-1.813-1.047.451-.26.451-.261 1.814 1.047zm-3.627-2.093l-.451.26-.451.261-1.814-1.047.451-.261.452-.26 1.813 1.047zm-3.627-2.094l-.451.26-.451.261-1.814-1.047.452-.26.451-.261 1.813 1.047zm-3.626-2.094l-.452.261-.451.26-1.813-1.047.451-.26.451-.261 1.814 1.047zm-3.627-2.094l-.451.261-.452.261-1.813-1.047.451-.261.452-.26 1.813 1.046zm-3.627-2.093l-.451.26-.451.261-.005-.003-.004.003-.451-.261-.451-.26.004-.003.451-.26.451-.261.452.261.451.26.004.003zm-3.627 1.047l.452.26.451.261-1.813 1.047-.452-.261-.451-.261 1.813-1.046zm-3.626 2.093l.451.261.451.26-1.813 1.047-.451-.26-.452-.261 1.814-1.047zm-3.627 2.094l.451.261.452.26-1.814 1.047-.451-.261-.451-.26 1.813-1.047zm-3.627 2.094l.452.26.451.261-1.814 1.047-.451-.261-.451-.26 1.813-1.047zm-3.626 2.093l.451.261.451.26-1.813 1.047-.452-.26-.451-.261 1.814-1.047zm-3.627 2.094l.451.261.451.26-1.813 1.047-.451-.26-.451-.261 1.813-1.047zm-3.627 2.094l.451.26.452.261-1.814 1.047-.451-.261-.451-.26 1.813-1.047zm-3.627 2.094l.452.26.451.261-1.813 1.046-.452-.26-.451-.261 1.813-1.046zm-3.626 2.093l.451.261.451.26-1.813 1.047-.451-.26-.452-.261 1.814-1.047zm-3.627 2.094l.451.26.452.261-1.814 1.047-.451-.261-.451-.26 1.813-1.047z" fill="url(#prefix__paint2_linear_1526_15442)"/><path opacity=".6" transform="matrix(.86604 .49997 .86604 -.49997 904.566 469.633)" stroke="#D3FDEB" stroke-width="1.042" stroke-dasharray="2.08 2.08" d="M.903 0h45.022v45.022H.903z"/></g><g opacity=".6"><mask id="prefix__a" style="mask-type:alpha" maskUnits="userSpaceOnUse" x="297" y="362" width="289" height="98"><path d="M374.192 459.099l-55.748-21.893-21.414-26.448 26.065-25.532 62.377-22.414 200.48 70.788-211.76 25.499z" fill="url(#prefix__paint3_linear_1526_15442)"/></mask><g mask="url(#prefix__a)"><path d="M441.204 418.114l-69.899 40.36 117.73 67.924 147.098-89.392-194.929-99.787v80.895z" fill="#000"/></g></g><mask id="prefix__b" style="mask-type:alpha" maskUnits="userSpaceOnUse" x="297" y="362" width="289" height="98"><path d="M373.898 459.341l-55.449-22.135-21.414-26.448 26.064-25.532 62.378-22.414 200.48 70.788-212.059 25.741z" fill="url(#prefix__paint4_linear_1526_15442)"/></mask><g mask="url(#prefix__b)"><path d="M441.207 418.114l-69.899 40.359 117.729 67.925 147.098-89.392-194.928-99.787v80.895z" fill="#000"/></g><g filter="url(#prefix__filter1_bd_1526_15442)"><rect width="227.952" height="227.952" rx="9" transform="scale(-1.22477 .70706) rotate(45 -571.434 -514.847)" fill="url(#prefix__paint5_linear_1526_15442)"/></g><path opacity=".3" transform="scale(1.22477 .70706) rotate(-45 833.537 -429.454)" stroke="#D3FDEB" stroke-width="1.042" stroke-dasharray="2.08 2.08" d="M.903 0h45.022v45.022H.903z"/><path transform="scale(1.22477 .70706) rotate(-45 700.45 -277.149)" fill="url(#prefix__paint6_linear_1526_15442)" d="M0 0h46.065v46.065H0z"/><path opacity=".2" transform="scale(1.22477 .70706) rotate(-45 783.856 -311.697)" fill="url(#prefix__paint7_linear_1526_15442)" d="M0 0h46.065v46.065H0z"/><path opacity=".2" transform="scale(1.22477 .70706) rotate(-45 867.264 -346.247)" fill="url(#prefix__paint8_linear_1526_15442)" d="M0 0h46.065v46.065H0z"/><path opacity=".7" transform="scale(1.22477 .70706) rotate(-45 665.901 -360.556)" fill="url(#prefix__paint9_linear_1526_15442)" d="M0 0h46.065v46.065H0z"/><path opacity=".7" transform="scale(1.22477 .70706) rotate(-45 749.309 -395.105)" fill="url(#prefix__paint10_linear_1526_15442)" d="M0 0h46.065v46.065H0z"/><path transform="scale(1.22477 .70706) rotate(-45 631.353 -443.963)" fill="url(#prefix__paint11_linear_1526_15442)" d="M0 0h46.065v46.065H0z"/><path opacity=".3" transform="scale(1.22477 .70706) rotate(-45 715.583 -478.312)" stroke="#D3FDEB" stroke-width="1.042" stroke-dasharray="2.08 2.08" d="M.903 0h45.022v45.022H.903z"/><path d="M570.955 293.555l-39.715 22.93v-79.521l39.715-22.929v79.52z" fill="url(#prefix__paint12_linear_1526_15442)" fill-opacity=".65"/><path d="M491.524 293.556l39.716 22.929v-109.64l-39.716-22.93v109.641z" fill="url(#prefix__paint13_linear_1526_15442)" fill-opacity=".65"/><path d="M690.294 223.669l-39.715 22.929v-79.52l39.715-22.93v79.521z" fill="url(#prefix__paint14_linear_1526_15442)" fill-opacity=".65"/><path d="M610.863 223.669l39.715 22.929v-109.64l-39.715-22.93v109.641z" fill="url(#prefix__paint15_linear_1526_15442)" fill-opacity=".65"/><path d="M301.548 337.636l69.769-40.282v80.564l-69.769 40.281v-80.563z" fill="#0CC" fill-opacity=".38"/><path d="M441.062 337.636l-69.769-40.282v80.564l69.769 40.281v-80.563z" fill="#009A9A" fill-opacity=".38"/><path d="M371.001 378L301.5 337.282 371.77 297l69.769 40.282L371.001 378z" fill="url(#prefix__paint16_linear_1526_15442)" fill-opacity=".9"/><path d="M371.317 377.808l-69.769-40.282v80.563l69.769 40.282v-80.563z" fill="url(#prefix__paint17_linear_1526_15442)" fill-opacity=".9"/><path d="M371.291 377.788l69.77-40.282v80.564l-69.77 40.281v-80.563z" fill="url(#prefix__paint18_linear_1526_15442)" fill-opacity=".9"/><path d="M745.429 854.653L293.995 594.04c-58.6-33.83-58.6-88.678 0-122.508l51.249-29.586" stroke="url(#prefix__paint19_linear_1526_15442)" stroke-width="1.906"/><path d="M699.205 763.803L341.603 557.359c-46.419-26.798-46.419-70.246 0-97.044l17.544-10.128" stroke="url(#prefix__paint20_linear_1526_15442)" stroke-width="1.944"/><path d="M-383 202.518L68.434 463.131c58.6 33.83 153.608 33.83 212.208 0l51.25-29.586" stroke="url(#prefix__paint21_linear_1526_15442)" stroke-width="1.906"/><path d="M-124.119 283.162l278.237 160.625c36.117 20.851 94.674 20.851 130.792 0l31.587-18.235" stroke="url(#prefix__paint22_linear_1526_15442)" stroke-width="1.962"/><path fill="url(#prefix__paint23_linear_1526_15442)" d="M819 6h134v764H819z"/></g><defs><linearGradient id="prefix__paint0_linear_1526_15442" x1="-66.811" y1="705.783" x2="327.332" y2="439.331" gradientUnits="userSpaceOnUse"><stop offset=".092" stop-color="#00B589" stop-opacity=".94"/><stop offset=".686" stop-color="#1379C2" stop-opacity=".4"/><stop offset="1" stop-color="#1379C2" stop-opacity="0"/></linearGradient><linearGradient id="prefix__paint1_linear_1526_15442" x1="226.252" y1="214.297" x2="236.326" y2="-67.53" gradientUnits="userSpaceOnUse"><stop stop-color="#89DCFF" stop-opacity=".15"/><stop offset="1" stop-color="#C2FBFF" stop-opacity=".26"/></linearGradient><linearGradient id="prefix__paint2_linear_1526_15442" x1="744.577" y1="545.259" x2="918.571" y2="280.125" gradientUnits="userSpaceOnUse"><stop offset="0" stop-color="#85FFE9" stop-opacity=".8"/><stop offset="1" stop-color="#B8FFE1" stop-opacity=".02"/></linearGradient><linearGradient id="prefix__paint3_linear_1526_15442" x1="325.412" y1="399.347" x2="561.341" y2="430.152" gradientUnits="userSpaceOnUse"><stop stop-color="#003639"/><stop offset="1" stop-color="#005055" stop-opacity="0"/></linearGradient><linearGradient id="prefix__paint4_linear_1526_15442" x1="225.682" y1="416.331" x2="484.672" y2="416.927" gradientUnits="userSpaceOnUse"><stop stop-color="#003639"/><stop offset="1" stop-color="#005055" stop-opacity="0"/></linearGradient><linearGradient id="prefix__paint5_linear_1526_15442" x1="-125.867" y1="-70.832" x2="224.481" y2="-100.489" gradientUnits="userSpaceOnUse"><stop stop-color="#BFECFF" stop-opacity=".13"/><stop offset="1" stop-color="#E2F8FA" stop-opacity=".19"/></linearGradient><linearGradient id="prefix__paint6_linear_1526_15442" x1="-.007" y1="23.031" x2="46.066" y2="23.031" gradientUnits="userSpaceOnUse"><stop stop-color="#59F5FF" stop-opacity=".62"/><stop offset="0" stop-color="#BBFBFF" stop-opacity=".62"/><stop offset="1" stop-color="#B8FFE1" stop-opacity=".02"/></linearGradient><linearGradient id="prefix__paint7_linear_1526_15442" x1="-3.275" y1="29.05" x2="51.898" y2="20.561" gradientUnits="userSpaceOnUse"><stop stop-color="#79F5D7"/><stop offset=".958" stop-color="#8DEAFF" stop-opacity=".253"/><stop offset="1" stop-color="#CEFCF2" stop-opacity=".22"/></linearGradient><linearGradient id="prefix__paint8_linear_1526_15442" x1="-3.275" y1="29.05" x2="51.898" y2="20.561" gradientUnits="userSpaceOnUse"><stop stop-color="#79F5D7"/><stop offset=".958" stop-color="#8DEAFF" stop-opacity=".253"/><stop offset="1" stop-color="#CEFCF2" stop-opacity=".22"/></linearGradient><linearGradient id="prefix__paint9_linear_1526_15442" x1="-3.275" y1="29.05" x2="51.898" y2="20.561" gradientUnits="userSpaceOnUse"><stop stop-color="#79F5D7"/><stop offset=".958" stop-color="#8DEAFF" stop-opacity=".253"/><stop offset="1" stop-color="#CEFCF2" stop-opacity=".22"/></linearGradient><linearGradient id="prefix__paint10_linear_1526_15442" x1="-3.275" y1="29.05" x2="51.898" y2="20.561" gradientUnits="userSpaceOnUse"><stop stop-color="#79F5D7"/><stop offset=".958" stop-color="#8DEAFF" stop-opacity=".253"/><stop offset="1" stop-color="#CEFCF2" stop-opacity=".22"/></linearGradient><linearGradient id="prefix__paint11_linear_1526_15442" x1="-.007" y1="23.031" x2="46.066" y2="23.031" gradientUnits="userSpaceOnUse"><stop stop-color="#59F5FF" stop-opacity=".62"/><stop offset="0" stop-color="#BBFBFF" stop-opacity=".62"/><stop offset="1" stop-color="#B8FFE1" stop-opacity=".02"/></linearGradient><linearGradient id="prefix__paint12_linear_1526_15442" x1="544.778" y1="332.189" x2="566.961" y2="272.364" gradientUnits="userSpaceOnUse"><stop stop-color="#56C0A7"/><stop offset="1" stop-color="#008196" stop-opacity="0"/></linearGradient><linearGradient id="prefix__paint13_linear_1526_15442" x1="513.181" y1="329.021" x2="512.563" y2="257.738" gradientUnits="userSpaceOnUse"><stop stop-color="#9EFED5"/><stop offset="1" stop-color="#008196" stop-opacity="0"/></linearGradient><linearGradient id="prefix__paint14_linear_1526_15442" x1="664.117" y1="262.302" x2="686.3" y2="202.477" gradientUnits="userSpaceOnUse"><stop stop-color="#56C0A7"/><stop offset="1" stop-color="#008196" stop-opacity="0"/></linearGradient><linearGradient id="prefix__paint15_linear_1526_15442" x1="632.52" y1="259.135" x2="631.902" y2="187.851" gradientUnits="userSpaceOnUse"><stop stop-color="#9EFED5"/><stop offset="1" stop-color="#008196" stop-opacity="0"/></linearGradient><linearGradient id="prefix__paint16_linear_1526_15442" x1="313.463" y1="330.814" x2="436.737" y2="358.58" gradientUnits="userSpaceOnUse"><stop stop-color="#DFFFF1"/><stop offset=".5" stop-color="#4DECBC" stop-opacity=".83"/><stop offset=".987" stop-color="#0694AB" stop-opacity=".8"/></linearGradient><linearGradient id="prefix__paint17_linear_1526_15442" x1="301.547" y1="334.347" x2="360.701" y2="462.059" gradientUnits="userSpaceOnUse"><stop stop-color="#A5FFDE" stop-opacity=".99"/><stop offset=".781" stop-color="#086E67" stop-opacity=".998"/><stop offset="1" stop-color="#005459"/></linearGradient><linearGradient id="prefix__paint18_linear_1526_15442" x1="406.176" y1="370.702" x2="433.174" y2="419.651" gradientUnits="userSpaceOnUse"><stop stop-color="#3DEBC1" stop-opacity=".31"/><stop offset="1" stop-color="#016862" stop-opacity=".81"/></linearGradient><linearGradient id="prefix__paint19_linear_1526_15442" x1="335.768" y1="441.946" x2="696.708" y2="796.569" gradientUnits="userSpaceOnUse"><stop stop-color="#fff" stop-opacity=".67"/><stop offset="1" stop-color="#fff" stop-opacity="0"/></linearGradient><linearGradient id="prefix__paint20_linear_1526_15442" x1="352.335" y1="449.786" x2="661.621" y2="714.361" gradientUnits="userSpaceOnUse"><stop stop-color="#fff" stop-opacity=".67"/><stop offset="1" stop-color="#fff" stop-opacity="0"/></linearGradient><linearGradient id="prefix__paint21_linear_1526_15442" x1="294.243" y1="436.323" x2="8.488" y2="308.539" gradientUnits="userSpaceOnUse"><stop stop-color="#fff" stop-opacity=".67"/><stop offset=".592" stop-color="#fff" stop-opacity="0"/></linearGradient><linearGradient id="prefix__paint22_linear_1526_15442" x1="293.292" y1="427.265" x2="99.49" y2="342.311" gradientUnits="userSpaceOnUse"><stop stop-color="#fff" stop-opacity=".67"/><stop offset=".453" stop-color="#fff" stop-opacity="0"/></linearGradient><linearGradient id="prefix__paint23_linear_1526_15442" x1="953" y1="353" x2="819" y2="353" gradientUnits="userSpaceOnUse"><stop/><stop offset="1" stop-opacity="0"/></linearGradient><filter id="prefix__filter0_d_1526_15442" x="658.301" y="309.378" width="452.397" height="289.361" filterUnits="userSpaceOnUse" color-interpolation-filters="sRGB"><feFlood flood-opacity="0" result="BackgroundImageFix"/><feColorMatrix in="SourceAlpha" values="0 0 0 0 0 0 0 0 0 0 0 0 0 0 0 0 0 0 127 0" result="hardAlpha"/><feOffset dy="18.758"/><feGaussianBlur stdDeviation="16.674"/><feColorMatrix values="0 0 0 0 0 0 0 0 0 0 0 0 0 0 0 0 0 0 0.1 0"/><feBlend in2="BackgroundImageFix" result="effect1_dropShadow_1526_15442"/><feBlend in="SourceGraphic" in2="effect1_dropShadow_1526_15442" result="shape"/></filter><filter id="prefix__filter1_bd_1526_15442" x="439.26" y="162.954" width="423.218" height="266.501" filterUnits="userSpaceOnUse" color-interpolation-filters="sRGB"><feFlood flood-opacity="0" result="BackgroundImageFix"/><feGaussianBlur in="BackgroundImage" stdDeviation="9.379"/><feComposite in2="SourceAlpha" operator="in" result="effect1_backgroundBlur_1526_15442"/><feColorMatrix in="SourceAlpha" values="0 0 0 0 0 0 0 0 0 0 0 0 0 0 0 0 0 0 127 0" result="hardAlpha"/><feMorphology radius="13.948" in="SourceAlpha" result="effect2_dropShadow_1526_15442"/><feOffset dx="3.487" dy="30.961"/><feGaussianBlur stdDeviation="4.032"/><feColorMatrix values="0 0 0 0 0 0 0 0 0 0 0 0 0 0 0 0 0 0 0.17 0"/><feBlend in2="effect1_backgroundBlur_1526_15442" result="effect2_dropShadow_1526_15442"/><feBlend in="SourceGraphic" in2="effect2_dropShadow_1526_15442" result="shape"/></filter><clipPath id="prefix__clip0_1526_15442"><path fill="#fff" d="M0 0h953v770H0z"/></clipPath></defs></svg>